<?xml version="1.0" encoding="UTF-8"?>
<svg xmlns="http://www.w3.org/2000/svg" xmlns:xlink="http://www.w3.org/1999/xlink" width="128px" height="252px" viewBox="0 0 128 252" version="1.1">
<g id="surface1">
<path style="fill-rule:nonzero;fill:rgb(16.470588%,14.117647%,13.333333%);fill-opacity:1;stroke-width:1;stroke-linecap:butt;stroke-linejoin:miter;stroke:rgb(100%,100%,100%);stroke-opacity:1;stroke-miterlimit:4;" d="M 23.485901 3.079582 C 23.485901 4.780661 22.107117 6.159815 20.406067 6.159815 C 18.705017 6.159815 17.326233 4.780661 17.326233 3.079582 C 17.326233 1.379418 18.705017 0.000263517 20.406067 0.000263517 C 22.105286 0.00483631 23.481323 1.381247 23.485901 3.079582 Z M 23.485901 3.079582 " transform="matrix(4.266667,0,0,4.271186,2.133333,2.135593)"/>
<path style="fill-rule:nonzero;fill:rgb(16.470588%,14.117647%,13.333333%);fill-opacity:1;stroke-width:1;stroke-linecap:butt;stroke-linejoin:miter;stroke:rgb(100%,100%,100%);stroke-opacity:1;stroke-miterlimit:4;" d="M 11.551086 52.132844 L 11.551086 10.781079 L 17.63385 10.781079 L 17.63385 22.331954 L 23.099548 22.331954 L 23.099548 10.781079 L 29.183228 10.781079 L 29.183228 52.132844 Z M 11.551086 52.132844 " transform="matrix(4.266667,0,0,4.271186,2.133333,2.135593)"/>
<path style="fill-rule:nonzero;fill:rgb(100%,100%,100%);fill-opacity:1;stroke-width:1;stroke-linecap:butt;stroke-linejoin:miter;stroke:rgb(16.470588%,14.117647%,13.333333%);stroke-opacity:1;stroke-miterlimit:4;" d="M 8.854858 10.699684 C 7.02655 10.699684 5.544312 9.217184 5.544312 7.388982 C 5.544312 5.560779 7.02655 4.07828 8.854858 4.07828 C 10.683167 4.07828 12.166321 5.560779 12.166321 7.388982 C 12.152588 9.211697 10.677673 10.685965 8.854858 10.699684 Z M 8.854858 10.699684 " transform="matrix(4.266667,0,0,4.271186,2.133333,2.135593)"/>
<path style="fill-rule:nonzero;fill:rgb(100%,100%,100%);fill-opacity:1;stroke-width:1;stroke-linecap:butt;stroke-linejoin:miter;stroke:rgb(16.470588%,14.117647%,13.333333%);stroke-opacity:1;stroke-miterlimit:4;" d="M 11.551086 57.908281 L 11.551086 46.355577 L 6.082642 46.355577 L 6.082642 57.908281 L -0.00012207 57.908281 L -0.00012207 16.555602 L 17.63385 16.555602 L 17.63385 57.908281 Z M 11.551086 57.908281 " transform="matrix(4.266667,0,0,4.271186,2.133333,2.135593)"/>
</g>
</svg>
