<?xml version="1.0" encoding="UTF-8"?>
<svg xmlns="http://www.w3.org/2000/svg" xmlns:xlink="http://www.w3.org/1999/xlink" width="128px" height="256px" viewBox="0 0 128 256" version="1.1">
<g id="surface1">
<path style=" stroke:none;fill-rule:nonzero;fill:rgb(16.470588%,14.117647%,13.333333%);fill-opacity:1;" d="M 103.664062 13.59375 C 103.664062 21.101562 97.574219 27.1875 90.066406 27.1875 C 82.558594 27.1875 76.472656 21.101562 76.472656 13.59375 C 76.472656 6.085938 82.558594 0 90.066406 0 C 97.566406 0.0234375 103.640625 6.09375 103.664062 13.59375 Z M 103.664062 13.59375 "/>
<path style=" stroke:none;fill-rule:nonzero;fill:rgb(16.470588%,14.117647%,13.333333%);fill-opacity:1;" d="M 50.984375 230.105469 L 50.984375 47.585938 L 77.832031 47.585938 L 77.832031 98.570312 L 101.957031 98.570312 L 101.957031 47.585938 L 128.808594 47.585938 L 128.808594 230.105469 Z M 50.984375 230.105469 "/>
<path style=" stroke:none;fill-rule:nonzero;fill:rgb(100%,100%,100%);fill-opacity:1;" d="M 39.085938 47.226562 C 31.011719 47.226562 24.46875 40.683594 24.46875 32.613281 C 24.46875 24.542969 31.011719 18 39.085938 18 C 47.15625 18 53.699219 24.542969 53.699219 32.613281 C 53.636719 40.660156 47.128906 47.167969 39.085938 47.226562 Z M 39.085938 47.226562 "/>
<path style=" stroke:none;fill-rule:nonzero;fill:rgb(100%,100%,100%);fill-opacity:1;" d="M 50.984375 255.59375 L 50.984375 204.605469 L 26.847656 204.605469 L 26.847656 255.59375 L 0 255.59375 L 0 73.074219 L 77.832031 73.074219 L 77.832031 255.59375 Z M 50.984375 255.59375 "/>
</g>
</svg>
