<?xml version="1.0" encoding="utf-8"?>
<!-- Generator: Adobe Illustrator 24.0.0, SVG Export Plug-In . SVG Version: 6.00 Build 0)  -->
<svg version="1.1" xmlns="http://www.w3.org/2000/svg" xmlns:xlink="http://www.w3.org/1999/xlink" x="0px" y="0px"
	 viewBox="0 0 256 256" enable-background="new 0 0 256 256" xml:space="preserve">
<g id="Layer_1">
</g>
<g id="Layer_2">
</g>
<g id="Layer_3">
</g>
<g id="Layer_4">
</g>
<g id="Layer_5">
</g>
<g id="Layer_6">
</g>
<g id="Layer_7">
</g>
<g id="Layer_8">
</g>
<g id="Layer_9">
</g>
<g id="Layer_10">
</g>
<g id="Layer_11">
</g>
<g id="Layer_12">
</g>
<g id="Layer_13">
</g>
<g id="Layer_14">
</g>
<g id="Layer_15">
</g>
<g id="Layer_16">
</g>
<g id="Layer_17">
</g>
<g id="Layer_18">
</g>
<g id="Layer_19">
</g>
<g id="Layer_20">
</g>
<g id="Layer_21">
</g>
<g id="Layer_22">
</g>
<g id="Layer_23">
</g>
<g id="Layer_24">
</g>
<g id="Layer_25">
</g>
<g id="Layer_26">
</g>
<g id="Layer_27">
</g>
<g id="Layer_28">
</g>
<g id="Layer_29">
</g>
<g id="Layer_30">
</g>
<g id="Layer_31">
</g>
<g id="Layer_32">
</g>
<g id="Layer_33">
</g>
<g id="Layer_34">
</g>
<g id="Layer_35">
</g>
<g id="Layer_36">
</g>
<g id="Layer_37">
</g>
<g id="Layer_38">
</g>
<g id="Layer_39">
</g>
<g id="Layer_40">
</g>
<g id="Layer_41">
</g>
<g id="Layer_42">
</g>
<g id="Layer_43">
</g>
<g id="Layer_44">
</g>
<g id="Layer_45">
</g>
<g id="Layer_46">
</g>
<g id="Layer_47">
</g>
<g id="Layer_48">
</g>
<g id="Layer_49">
</g>
<g id="Layer_50">
</g>
<g id="Layer_51">
</g>
<g id="Layer_52">
</g>
<g id="Layer_53">
</g>
<g id="Layer_54">
</g>
<g id="Layer_55">
</g>
<g id="Layer_56">
</g>
<g id="Layer_57">
</g>
<g id="Layer_58">
</g>
<g id="Layer_59">
	<g>
		<g>
			<path fill="#818182" d="M160.569,112.941v-11.248c0-4.993-4.086-9.079-9.079-9.079h-11.808c-4.993,0-9.079,4.086-9.079,9.079
				v11.248H160.569z"/>
		</g>
		<g>
			<path fill="#F5C84C" d="M212.293,69.489H172.38c-3.573,0-6.497,2.924-6.497,6.497c0,3.573,2.924,6.497,6.497,6.497h39.912
				c3.573,0,6.497-2.924,6.497-6.497C218.789,72.413,215.866,69.489,212.293,69.489z"/>
		</g>
		<g>
			<circle fill="#F5C84C" cx="192.336" cy="27.649" r="7.684"/>
		</g>
		<g>
			<path fill="#818182" d="M172.518,82.483c1.832,5.235,4.938,9.869,8.966,13.515c2.405,2.177,5.537,3.382,8.782,3.382h4.143
				c3.244,0,6.377-1.204,8.782-3.382c4.028-3.647,7.134-8.28,8.966-13.515H172.518z"/>
		</g>
		<g>
			<path fill="#F5C84C" d="M118.791,69.489H78.879c-3.573,0-6.497,2.924-6.497,6.497c0,3.573,2.924,6.497,6.497,6.497h39.912
				c3.573,0,6.497-2.924,6.497-6.497C125.288,72.413,122.364,69.489,118.791,69.489z"/>
		</g>
		<g>
			<circle fill="#F5C84C" cx="98.835" cy="27.649" r="7.684"/>
		</g>
		<g>
			<path fill="#818182" d="M93.418,93.232c1.358-0.152,2.736-0.231,4.133-0.231c1.397,0,2.775,0.079,4.133,0.231
				c1.896,0.212,3.387,1.631,3.757,3.438c0.821,0.202,1.628,0.439,2.424,0.702c0.642-0.403,1.254-0.859,1.823-1.374
				c4.028-3.646,7.134-8.28,8.966-13.515H79.016c1.832,5.235,4.938,9.869,8.966,13.515c0.506,0.458,1.05,0.863,1.615,1.233
				C89.745,95.165,91.331,93.466,93.418,93.232z"/>
		</g>
		<g>
			<path fill="#F5C84C" d="M156.967,21.711c-1.876-2.304-3.541-3.202-5.937-3.202c-3.566,0-6.84,0-10.891,0
				c-2.396,0-4.06,0.898-5.937,3.202c-0.374,0.459-0.762,0.901-1.159,1.33l5.404,69.667c0.404-0.056,0.814-0.094,1.233-0.094h11.808
				c0.419,0,0.828,0.039,1.233,0.094l5.404-69.667C157.73,22.612,157.342,22.17,156.967,21.711z"/>
		</g>
		<g>
			<path fill="#F5C84C" d="M140.14,18.509c4.051,0,7.325,0,10.891,0c1.407,0,2.561,0.322,3.655,1.044l-2.197-11.358
				c-1.469-7.594-12.337-7.594-13.806,0l-2.197,11.358C137.58,18.83,138.733,18.509,140.14,18.509z"/>
		</g>
		<g>
			<path fill="#F5C84C" d="M162.334,112.941h-33.497c-0.714,0-1.4,0.121-2.044,0.337c2.064,3.837,3.398,8.117,3.803,12.657h31.738
				c3.573,0,6.497-2.924,6.497-6.497C168.831,115.864,165.908,112.941,162.334,112.941z"/>
		</g>
		<g>
			<path fill="#FCA265" d="M97.551,183.103L97.551,183.103c-3.963,0-7.705-0.984-11.003-2.71v3.887c0,3.137-1.78,6.009-4.593,7.396
				c-3.811,1.879-7.136,3.381-12.183,4.651l-12.931,3.255c-4,1.007-6.881,4.498-7.11,8.616l-2.405,41.469
				c-0.121,2.08,1.534,3.834,3.618,3.834h93.215c2.084,0,3.738-1.753,3.618-3.834l-2.405-41.469c-0.229-4.118-3.11-7.609-7.11-8.616
				l-12.931-3.255c-6.854-1.725-12.244-4.681-12.174-4.646c-2.818-1.39-4.602-4.259-4.602-7.4v-3.887
				C105.256,182.12,101.514,183.103,97.551,183.103z"/>
		</g>
		<g>
			<path fill="#FCA265" d="M132.728,129.908H62.374c-3.143,0-5.69,2.548-5.69,5.69s2.548,5.69,5.69,5.69h70.354
				c3.143,0,5.69-2.548,5.69-5.69S135.871,129.908,132.728,129.908z"/>
		</g>
		<g>
			<path fill="#F9D0B4" d="M125.25,141.289h-3.815c0,2.791,0,14.214,0,17.93c0,0.539-0.025,1.071-0.06,1.602
				c0.52,0.084,1.049,0.139,1.593,0.139c5.507,0,9.972-4.465,9.972-9.972C132.94,146.267,129.656,142.322,125.25,141.289z"/>
		</g>
		<g>
			<g>
				<path fill="#F9D0B4" d="M73.667,141.289v17.93c0,13.137,10.748,23.884,23.884,23.884s23.884-10.748,23.884-23.884v-17.93H73.667
					z"/>
			</g>
		</g>
		<g>
			<path fill="#F9D0B4" d="M97.551,202.988c7.845,0,14.853-3.751,19.332-9.544c-2.331-0.998-3.763-1.781-3.726-1.763
				c-2.818-1.39-4.602-4.258-4.602-7.4v-3.887c-3.299,1.727-7.041,2.71-11.003,2.71h0c-3.963,0-7.705-0.984-11.003-2.71v3.887
				c0,3.142-1.784,6.011-4.602,7.4c-1.27,0.626-2.489,1.207-3.733,1.755C82.69,199.233,89.702,202.988,97.551,202.988z"/>
		</g>
		<g>
			<path fill="#F9D0B4" d="M73.667,141.289h-3.815c-4.406,1.033-7.69,4.979-7.69,9.699c0,5.507,4.465,9.972,9.972,9.972
				c0.543,0,1.073-0.055,1.593-0.139v-0.001c-0.036-0.53-0.06-1.063-0.06-1.601C73.667,156.768,73.667,146.27,73.667,141.289z"/>
		</g>
		<g>
			<path fill="#6CADEF" d="M65.025,253.5c20.61,0,42.769,0,65.051,0v-31.374H65.025V253.5z"/>
		</g>
		<g>
			<path fill="#FC8C48" d="M89.568,97.539c0-0.298,0.035-0.587,0.093-0.869c-14.47,3.565-25.288,16.685-25.288,32.216v1.022h25.195
				V97.539z"/>
		</g>
		<g>
			<path fill="#FC8C48" d="M105.441,96.67c0.058,0.282,0.093,0.571,0.093,0.869v32.369h25.195v-1.022
				C130.728,113.355,119.911,100.235,105.441,96.67z"/>
		</g>
		<g>
			<path fill="#FCA265" d="M105.534,129.908V97.539c0-2.205-1.658-4.061-3.85-4.306c-1.358-0.152-2.736-0.231-4.133-0.231
				c-1.397,0-2.775,0.079-4.133,0.231c-2.192,0.246-3.85,2.101-3.85,4.306v32.369H105.534z"/>
		</g>
		<g>
			<path fill="#5290DB" d="M130.077,197.522l-4.746-1.195c-2.922-0.736-5.573-1.694-7.653-2.55v28.348h12.399V197.522z"/>
		</g>
		<g>
			<path fill="#5290DB" d="M77.424,193.776c-2.252,0.952-4.645,1.794-7.653,2.551l-4.746,1.195v24.604h12.399V193.776z"/>
		</g>
		<g>
			<path fill="#F9D0B4" d="M147.776,249.666l-0.885-15.262h-16.814V253.5h14.082C146.242,253.5,147.897,251.747,147.776,249.666z"/>
		</g>
		<g>
			<path fill="#F9D0B4" d="M50.943,253.5h14.082v-19.096H48.211l-0.885,15.262C47.205,251.747,48.859,253.5,50.943,253.5z"/>
		</g>
		<g>
			<path d="M178.552,34.447c-9.176,0-17.749-4.066-23.522-11.158c-1.57-1.928-2.578-2.28-3.998-2.28h-10.891
				c-1.42,0-2.429,0.353-3.998,2.28c-5.773,7.092-14.348,11.158-23.523,11.158c-2.229,0-4.466-0.248-6.647-0.736
				c-1.348-0.302-2.195-1.638-1.894-2.985c0.302-1.349,1.638-2.194,2.985-1.894c1.824,0.408,3.693,0.615,5.556,0.615
				c7.666,0,14.826-3.396,19.646-9.314c2.353-2.891,4.708-4.124,7.875-4.124h10.891c3.166,0,5.521,1.233,7.875,4.123
				c4.82,5.92,11.98,9.315,19.646,9.315c2.004,0,4.011-0.239,5.965-0.711c1.336-0.319,2.692,0.502,3.017,1.844
				c0.323,1.343-0.502,2.693-1.845,3.018C183.352,34.161,180.95,34.447,178.552,34.447z"/>
		</g>
		<g>
			<path d="M160.568,114.375c-1.381,0-2.5-1.119-2.5-2.5v-10.183c0-3.628-2.951-6.579-6.579-6.579h-11.808
				c-3.628,0-6.579,2.951-6.579,6.579v9.87c0,1.381-1.119,2.5-2.5,2.5s-2.5-1.119-2.5-2.5v-9.87c0-6.385,5.194-11.579,11.579-11.579
				h11.808c6.385,0,11.579,5.194,11.579,11.579v10.183C163.068,113.256,161.949,114.375,160.568,114.375z"/>
		</g>
		<g>
			<path d="M212.293,84.982H172.38c-4.961,0-8.996-4.035-8.996-8.996s4.035-8.997,8.996-8.997h39.913
				c4.961,0,8.996,4.036,8.996,8.997S217.254,84.982,212.293,84.982z M172.38,71.989c-2.203,0-3.996,1.793-3.996,3.997
				c0,2.203,1.793,3.996,3.996,3.996h39.913c2.203,0,3.996-1.793,3.996-3.996c0-2.204-1.793-3.997-3.996-3.997H172.38z"/>
		</g>
		<g>
			<path d="M173.108,71.345c-0.328,0-0.662-0.065-0.982-0.202c-1.27-0.544-1.858-2.013-1.315-3.282l14.483-33.844
				c0.544-1.269,2.017-1.855,3.282-1.315c1.27,0.544,1.858,2.013,1.315,3.282l-14.483,33.844
				C175.002,70.775,174.078,71.345,173.108,71.345z"/>
		</g>
		<g>
			<path d="M211.564,71.345c-0.971,0-1.894-0.568-2.3-1.518l-14.483-33.844c-0.543-1.27,0.046-2.738,1.315-3.282
				c1.269-0.541,2.739,0.045,3.282,1.315l14.483,33.844c0.543,1.27-0.046,2.738-1.315,3.282
				C212.227,71.279,211.893,71.345,211.564,71.345z"/>
		</g>
		<g>
			<path d="M192.337,37.833c-5.615,0-10.184-4.568-10.184-10.184s4.568-10.184,10.184-10.184c5.614,0,10.183,4.568,10.183,10.184
				S197.951,37.833,192.337,37.833z M192.337,22.466c-2.858,0-5.184,2.325-5.184,5.184s2.325,5.184,5.184,5.184
				c2.857,0,5.183-2.325,5.183-5.184S195.194,22.466,192.337,22.466z"/>
		</g>
		<g>
			<path d="M194.408,101.88h-4.143c-3.876,0-7.591-1.431-10.46-4.028c-4.102-3.714-7.316-8.411-9.297-13.584
				c-0.493-1.289,0.151-2.734,1.441-3.229c1.292-0.492,2.735,0.151,3.229,1.441c1.7,4.442,4.461,8.476,7.982,11.664
				c1.948,1.764,4.472,2.735,7.104,2.735h4.143c2.633,0,5.155-0.972,7.104-2.735c3.507-3.175,6.26-7.188,7.961-11.608
				c0.495-1.288,1.937-1.935,3.231-1.435c1.288,0.496,1.931,1.942,1.435,3.231c-1.981,5.146-5.188,9.821-9.271,13.519
				C201.998,100.449,198.283,101.88,194.408,101.88z"/>
		</g>
		<g>
			<path d="M118.791,84.982H78.879c-4.961,0-8.997-4.035-8.997-8.996s4.036-8.997,8.997-8.997h39.912
				c4.961,0,8.997,4.036,8.997,8.997S123.752,84.982,118.791,84.982z M78.879,71.989c-2.204,0-3.997,1.793-3.997,3.997
				c0,2.203,1.793,3.996,3.997,3.996h39.912c2.204,0,3.997-1.793,3.997-3.996c0-2.204-1.793-3.997-3.997-3.997H78.879z"/>
		</g>
		<g>
			<path d="M79.606,71.345c-0.328,0-0.662-0.065-0.982-0.202c-1.27-0.544-1.858-2.013-1.315-3.282l14.483-33.844
				c0.544-1.269,2.017-1.855,3.282-1.315c1.27,0.544,1.858,2.013,1.315,3.282L81.906,69.827
				C81.5,70.775,80.576,71.345,79.606,71.345z"/>
		</g>
		<g>
			<path d="M118.063,71.345c-0.971,0-1.894-0.568-2.3-1.518L101.28,35.983c-0.543-1.27,0.046-2.738,1.315-3.282
				c1.27-0.541,2.739,0.045,3.282,1.315L120.36,67.86c0.543,1.27-0.046,2.738-1.315,3.282
				C118.725,71.279,118.391,71.345,118.063,71.345z"/>
		</g>
		<g>
			<path d="M98.835,37.833c-5.615,0-10.184-4.568-10.184-10.184s4.568-10.184,10.184-10.184s10.184,4.568,10.184,10.184
				S104.45,37.833,98.835,37.833z M98.835,22.466c-2.858,0-5.184,2.325-5.184,5.184s2.325,5.184,5.184,5.184
				s5.184-2.325,5.184-5.184S101.693,22.466,98.835,22.466z"/>
		</g>
		<g>
			<path d="M108.294,99.593c-0.8,0-1.586-0.383-2.07-1.095c-0.775-1.143-0.479-2.697,0.663-3.474
				c0.399-0.271,0.777-0.567,1.123-0.88c3.367-3.048,6.05-6.885,7.759-11.096c0.518-1.279,1.975-1.897,3.256-1.377
				c1.28,0.519,1.896,1.977,1.377,3.256c-1.989,4.904-5.114,9.373-9.036,12.924c-0.518,0.468-1.079,0.908-1.668,1.31
				C109.267,99.453,108.778,99.593,108.294,99.593z"/>
		</g>
		<g>
			<path d="M89.021,99.336c-0.507,0-1.018-0.153-1.46-0.472c-0.459-0.331-0.87-0.662-1.258-1.014
				c-4.095-3.707-7.307-8.396-9.286-13.559c-0.495-1.289,0.149-2.735,1.438-3.229c1.295-0.496,2.736,0.151,3.229,1.438
				c1.7,4.435,4.458,8.46,7.975,11.644c0.249,0.226,0.519,0.442,0.825,0.663c1.12,0.808,1.373,2.37,0.566,3.49
				C90.562,98.976,89.797,99.336,89.021,99.336z"/>
		</g>
		<g>
			<path d="M138.372,94.256c-1.293,0-2.388-0.996-2.489-2.307l-5.288-68.166c-0.107-1.377,0.922-2.579,2.299-2.686
				c1.363-0.12,2.579,0.922,2.686,2.299l5.288,68.166c0.107,1.377-0.922,2.579-2.299,2.686
				C138.503,94.254,138.438,94.256,138.372,94.256z"/>
		</g>
		<g>
			<path d="M152.793,94.333c-0.065,0-0.131-0.002-0.196-0.008c-1.377-0.106-2.406-1.309-2.299-2.686l5.296-68.269
				c0.106-1.377,1.321-2.422,2.686-2.299c1.377,0.106,2.406,1.309,2.299,2.686l-5.296,68.269
				C155.181,93.337,154.086,94.333,152.793,94.333z"/>
		</g>
		<g>
			<path d="M136.542,21.778c-0.157,0-0.317-0.015-0.478-0.046c-1.355-0.262-2.242-1.573-1.979-2.929l2.144-11.083
				C137.121,3.103,140.882,0,145.586,0c4.703,0,8.464,3.103,9.356,7.721l2.087,10.787c0.263,1.355-0.624,2.667-1.979,2.929
				c-1.354,0.265-2.667-0.624-2.929-1.979L150.034,8.67C149.511,5.964,147.393,5,145.586,5c-1.808,0-3.926,0.964-4.449,3.67
				l-2.144,11.083C138.763,20.948,137.716,21.778,136.542,21.778z"/>
		</g>
		<g>
			<path d="M144.158,256H50.943c-1.679,0-3.302-0.7-4.453-1.92c-1.152-1.221-1.758-2.882-1.661-4.559l2.405-41.469
				c0.292-5.233,3.907-9.614,8.996-10.896l12.931-3.255c4.957-1.247,8.226-2.762,11.688-4.468c1.942-0.958,3.198-2.981,3.198-5.154
				v-3.072c0-1.381,1.119-2.5,2.5-2.5s2.5,1.119,2.5,2.5v3.072c0,4.062-2.35,7.845-5.987,9.639
				c-3.722,1.835-7.245,3.465-12.678,4.833l-12.931,3.255c-2.955,0.743-5.055,3.287-5.225,6.329l-2.405,41.475
				c-0.024,0.421,0.181,0.705,0.305,0.837S50.521,251,50.943,251h93.215c0.422,0,0.693-0.221,0.817-0.353s0.329-0.416,0.305-0.837
				l-2.405-41.469c-0.17-3.048-2.269-5.592-5.224-6.335l-12.932-3.255c-3.682-0.928-6.938-2.194-9.021-3.095
				c-1.901-0.821-3.043-1.349-3.748-1.784c-3.64-1.842-5.896-5.507-5.896-9.593v-3.155c0-1.381,1.119-2.5,2.5-2.5s2.5,1.119,2.5,2.5
				v3.155c0,2.206,1.229,4.183,3.207,5.158c0.043,0.021,0.084,0.043,0.125,0.066c0.264,0.142,5.294,2.822,11.554,4.397l12.932,3.255
				c5.088,1.281,8.703,5.662,8.995,10.901l2.405,41.463c0.097,1.677-0.509,3.338-1.661,4.559C147.46,255.3,145.837,256,144.158,256z
				"/>
		</g>
		<g>
			<path d="M75.565,131.533c-1.381,0-2.5-1.119-2.5-2.5v-24.179c0-1.381,1.119-2.5,2.5-2.5s2.5,1.119,2.5,2.5v24.179
				C78.065,130.414,76.946,131.533,75.565,131.533z"/>
		</g>
		<g>
			<path d="M119.536,131.533c-1.381,0-2.5-1.119-2.5-2.5v-24.179c0-1.381,1.119-2.5,2.5-2.5s2.5,1.119,2.5,2.5v24.179
				C122.036,130.414,120.917,131.533,119.536,131.533z"/>
		</g>
		<g>
			<path d="M162.334,128.435h-30.646c-1.381,0-2.5-1.119-2.5-2.5s1.119-2.5,2.5-2.5h30.646c2.204,0,3.997-1.793,3.997-3.997
				s-1.793-3.997-3.997-3.997h-33.497c-0.211,0-0.424,0.018-0.633,0.053c-1.364,0.239-2.652-0.688-2.881-2.049
				c-0.229-1.362,0.688-2.651,2.049-2.881c0.483-0.082,0.976-0.123,1.465-0.123h33.497c4.961,0,8.997,4.036,8.997,8.997
				S167.295,128.435,162.334,128.435z"/>
		</g>
		<g>
			<path fill="#87D147" d="M199.075,145.2c-3.1-0.6-5.6-3-6.2-6.1c0-0.1-0.3-0.1-0.3,0c-0.6,3.1-3.1,5.5-6.2,6.1
				c-0.1,0-0.1,0.2,0,0.3c3.1,0.6,5.6,3,6.2,6.1c0,0.1,0.3,0.1,0.3,0c0.6-3.1,3.1-5.5,6.2-6.1
				C199.175,145.4,199.175,145.2,199.075,145.2z"/>
		</g>
		<g>
			<path fill="#70D6F9" d="M226.075,40.5h2.3v2.3c0,1.8,1.4,3.2,3.2,3.2c1.7,0,3.2-1.4,3.2-3.1v-0.1v-2.3h2.3c1.8,0,3.2-1.4,3.2-3.2
				c0-1.7-1.4-3.2-3.1-3.2h-0.1h-2.3v-2.3c0-1.8-1.4-3.2-3.2-3.2c-1.7,0-3.2,1.4-3.2,3.1v0.1v2.3h-2.3c-1.8,0-3.2,1.4-3.2,3.2
				C222.775,39,224.175,40.5,226.075,40.5C225.975,40.5,225.975,40.5,226.075,40.5z"/>
		</g>
		<g>
			<circle fill="#F5C84C" cx="206.475" cy="3.4" r="3.4"/>
		</g>
		<g>
			<circle fill="#FC657E" cx="43.475" cy="172.4" r="3.4"/>
		</g>
		<g>
			<path fill="#F5C84C" d="M15.875,137.2c4.5-0.8,8-4.3,8.9-8.7c0-0.2,0.4-0.2,0.4,0c0.9,4.4,4.4,7.9,8.9,8.7c0.2,0,0.2,0.3,0,0.4
				c-4.5,0.8-8,4.3-8.9,8.7c0,0.2-0.4,0.2-0.4,0c-0.9-4.4-4.4-7.9-8.9-8.7C15.675,137.5,15.675,137.2,15.875,137.2z"/>
		</g>
		<g>
			<path d="M132.728,143.789H62.374c-4.517,0-8.19-3.674-8.19-8.19s3.674-8.19,8.19-8.19h70.354c4.517,0,8.19,3.674,8.19,8.19
				S137.244,143.789,132.728,143.789z M62.374,132.408c-1.759,0-3.19,1.432-3.19,3.19s1.432,3.19,3.19,3.19h70.354
				c1.759,0,3.19-1.432,3.19-3.19s-1.432-3.19-3.19-3.19H62.374z"/>
		</g>
		<g>
			<path d="M122.968,163.46c-1.381,0-2.5-1.119-2.5-2.5s1.119-2.5,2.5-2.5c4.12,0,7.472-3.352,7.472-7.472
				c0-3.482-2.369-6.47-5.761-7.266c-1.344-0.314-2.178-1.66-1.862-3.005c0.314-1.342,1.656-2.176,3.005-1.862
				c5.663,1.328,9.618,6.317,9.618,12.133C135.439,157.865,129.845,163.46,122.968,163.46z"/>
		</g>
		<g>
			<g>
				<path d="M97.551,185.604c-14.548,0-26.384-11.836-26.384-26.385v-16.802c0-1.381,1.119-2.5,2.5-2.5s2.5,1.119,2.5,2.5v16.802
					c0,11.792,9.593,21.385,21.384,21.385c11.792,0,21.385-9.593,21.385-21.385v-16.636c0-1.381,1.119-2.5,2.5-2.5
					s2.5,1.119,2.5,2.5v16.636C123.936,173.768,112.1,185.604,97.551,185.604z"/>
			</g>
		</g>
		<g>
			<path d="M97.551,205.488c-8.006,0-15.555-3.561-20.712-9.769c-0.883-1.063-0.736-2.639,0.325-3.521
				c1.063-0.881,2.639-0.736,3.521,0.325c4.205,5.062,10.352,7.964,16.866,7.964c6.519,0,12.669-2.906,16.874-7.975
				c0.881-1.063,2.457-1.21,3.521-0.327c1.063,0.882,1.209,2.458,0.327,3.521C113.115,201.923,105.562,205.488,97.551,205.488z"/>
		</g>
		<g>
			<path d="M72.134,163.46c-6.877,0-12.472-5.595-12.472-12.472c0-5.815,3.955-10.805,9.618-12.133
				c1.351-0.314,2.69,0.519,3.005,1.862c0.315,1.345-0.519,2.69-1.862,3.005c-3.392,0.796-5.761,3.783-5.761,7.266
				c0,4.12,3.352,7.472,7.472,7.472c1.381,0,2.5,1.119,2.5,2.5S73.515,163.46,72.134,163.46z"/>
		</g>
		<g>
			<path d="M65.025,254.813c-1.381,0-2.5-1.119-2.5-2.5v-30.188c0-1.381,1.119-2.5,2.5-2.5h65.051c1.381,0,2.5,1.119,2.5,2.5V252
				c0,1.381-1.119,2.5-2.5,2.5s-2.5-1.119-2.5-2.5v-27.374H67.525v27.688C67.525,253.694,66.406,254.813,65.025,254.813z"/>
		</g>
		<g>
			<path d="M64.373,131.386c-1.381,0-2.5-1.119-2.5-2.5c0-15.837,10.664-29.945,25.935-34.309c1.327-0.385,2.711,0.389,3.09,1.717
				c0.38,1.327-0.389,2.711-1.717,3.09c-13.134,3.754-22.308,15.886-22.308,29.502C66.873,130.267,65.754,131.386,64.373,131.386z"
				/>
		</g>
		<g>
			<path d="M130.729,131.386c-1.381,0-2.5-1.119-2.5-2.5c0-13.765-9.298-25.932-22.611-29.587c-1.331-0.366-2.114-1.741-1.749-3.073
				c0.365-1.33,1.74-2.113,3.073-1.749c15.478,4.25,26.287,18.399,26.287,34.409C133.229,130.267,132.109,131.386,130.729,131.386z"
				/>
		</g>
		<g>
			<path d="M105.533,131.386c-1.381,0-2.5-1.119-2.5-2.5V97.539c0-0.935-0.7-1.718-1.629-1.822c-2.551-0.287-5.156-0.287-7.707,0
				c-0.929,0.104-1.629,0.888-1.629,1.822v31.347c0,1.381-1.119,2.5-2.5,2.5c-1.381,0-2.5-1.119-2.5-2.5V97.539
				c0-3.482,2.609-6.402,6.07-6.791c2.922-0.328,5.902-0.328,8.824,0c3.461,0.389,6.07,3.308,6.07,6.791v31.347
				C108.033,130.267,106.914,131.386,105.533,131.386z"/>
		</g>
		<g>
			<path d="M117.678,223.125c-1.381,0-2.5-1.119-2.5-2.5v-26.167c0-1.381,1.119-2.5,2.5-2.5s2.5,1.119,2.5,2.5v26.167
				C120.178,222.006,119.059,223.125,117.678,223.125z"/>
		</g>
		<g>
			<path d="M130.076,224.626c-1.381,0-2.5-1.119-2.5-2.5v-23.577c0-1.381,1.119-2.5,2.5-2.5s2.5,1.119,2.5,2.5v23.577
				C132.576,223.507,131.457,224.626,130.076,224.626z"/>
		</g>
		<g>
			<path d="M65.025,224.626c-1.381,0-2.5-1.119-2.5-2.5v-23.577c0-1.381,1.119-2.5,2.5-2.5s2.5,1.119,2.5,2.5v23.577
				C67.525,223.507,66.406,224.626,65.025,224.626z"/>
		</g>
		<g>
			<path d="M77.425,223.313c-1.381,0-2.5-1.119-2.5-2.5V195c0-1.381,1.119-2.5,2.5-2.5s2.5,1.119,2.5,2.5v25.813
				C79.925,222.193,78.806,223.313,77.425,223.313z"/>
		</g>
		<g>
			<path d="M145.75,236.904h-14.375c-1.381,0-2.5-1.119-2.5-2.5s1.119-2.5,2.5-2.5h14.375c1.381,0,2.5,1.119,2.5,2.5
				S147.131,236.904,145.75,236.904z"/>
		</g>
		<g>
			<path d="M63.792,236.904H49.083c-1.381,0-2.5-1.119-2.5-2.5s1.119-2.5,2.5-2.5h14.709c1.381,0,2.5,1.119,2.5,2.5
				S65.173,236.904,63.792,236.904z"/>
		</g>
	</g>
</g>
<g id="Layer_60">
</g>
<g id="Layer_61">
</g>
<g id="Layer_62">
</g>
<g id="Layer_63">
</g>
<g id="Layer_64">
</g>
<g id="Layer_65">
</g>
<g id="Layer_66">
</g>
<g id="Layer_67">
</g>
<g id="Layer_68">
</g>
<g id="Layer_69">
</g>
<g id="Layer_70">
</g>
<g id="Layer_71">
</g>
<g id="Layer_72">
</g>
<g id="Layer_73">
</g>
<g id="Layer_74">
</g>
<g id="Layer_75">
</g>
<g id="Layer_76">
</g>
<g id="Layer_77">
</g>
<g id="Layer_78">
</g>
<g id="Layer_79">
</g>
<g id="Layer_80">
</g>
<g id="Layer_81">
</g>
<g id="Layer_82">
</g>
<g id="Layer_83">
</g>
<g id="Layer_84">
</g>
<g id="Layer_85">
</g>
<g id="Layer_86">
</g>
<g id="Layer_87">
</g>
<g id="Layer_88">
</g>
<g id="Layer_89">
</g>
<g id="Layer_90">
</g>
<g id="Layer_91">
</g>
<g id="Layer_92">
</g>
<g id="Layer_93">
</g>
<g id="Layer_94">
</g>
<g id="Layer_95">
</g>
</svg>
