<?xml version="1.0" encoding="utf-8"?>
<!-- Generator: Adobe Illustrator 24.0.0, SVG Export Plug-In . SVG Version: 6.00 Build 0)  -->
<svg version="1.1" xmlns="http://www.w3.org/2000/svg" xmlns:xlink="http://www.w3.org/1999/xlink" x="0px" y="0px"
	 viewBox="0 0 256 256" enable-background="new 0 0 256 256" xml:space="preserve">
<g id="Layer_1">
</g>
<g id="Layer_2">
</g>
<g id="Layer_3">
</g>
<g id="Layer_4">
</g>
<g id="Layer_5">
</g>
<g id="Layer_6">
</g>
<g id="Layer_7">
</g>
<g id="Layer_8">
</g>
<g id="Layer_9">
</g>
<g id="Layer_10">
</g>
<g id="Layer_11">
</g>
<g id="Layer_12">
</g>
<g id="Layer_13">
</g>
<g id="Layer_14">
</g>
<g id="Layer_15">
</g>
<g id="Layer_16">
</g>
<g id="Layer_17">
</g>
<g id="Layer_18">
</g>
<g id="Layer_19">
</g>
<g id="Layer_20">
</g>
<g id="Layer_21">
</g>
<g id="Layer_22">
</g>
<g id="Layer_23">
</g>
<g id="Layer_24">
</g>
<g id="Layer_25">
</g>
<g id="Layer_26">
</g>
<g id="Layer_27">
</g>
<g id="Layer_28">
</g>
<g id="Layer_29">
</g>
<g id="Layer_30">
</g>
<g id="Layer_31">
</g>
<g id="Layer_32">
</g>
<g id="Layer_33">
</g>
<g id="Layer_34">
</g>
<g id="Layer_35">
</g>
<g id="Layer_36">
</g>
<g id="Layer_37">
</g>
<g id="Layer_38">
</g>
<g id="Layer_39">
</g>
<g id="Layer_40">
</g>
<g id="Layer_41">
</g>
<g id="Layer_42">
</g>
<g id="Layer_43">
</g>
<g id="Layer_44">
</g>
<g id="Layer_45">
</g>
<g id="Layer_46">
</g>
<g id="Layer_47">
</g>
<g id="Layer_48">
</g>
<g id="Layer_49">
</g>
<g id="Layer_50">
</g>
<g id="Layer_51">
</g>
<g id="Layer_52">
</g>
<g id="Layer_53">
</g>
<g id="Layer_54">
</g>
<g id="Layer_55">
</g>
<g id="Layer_56">
</g>
<g id="Layer_57">
	<g>
		<g>
			<path fill="#70D6F9" d="M194.662,253.5H51.844c-2.805,0-5.079-2.274-5.079-5.079V229.53c0-2.805,2.274-5.079,5.079-5.079h142.818
				c2.805,0,5.079,2.274,5.079,5.079v18.891C199.741,251.226,197.467,253.5,194.662,253.5z"/>
		</g>
		<g>
			<path fill="#C18E6B" d="M214.405,224.451H71.587c-2.805,0-5.079-2.274-5.079-5.079v-30.321c0-2.805,2.274-5.079,5.079-5.079
				h142.818c2.805,0,5.079,2.274,5.079,5.079v30.321C219.484,222.177,217.21,224.451,214.405,224.451z"/>
		</g>
		<g>
			<path fill="#F98FA6" d="M194.662,183.972H51.844c-2.805,0-5.079-2.274-5.079-5.079v-18.891c0-2.805,2.274-5.079,5.079-5.079
				h142.818c2.805,0,5.079,2.274,5.079,5.079v18.891C199.741,181.698,197.467,183.972,194.662,183.972z"/>
		</g>
		<g>
			<rect x="74.314" y="154.923" fill="#FC657E" width="97.878" height="29.049"/>
		</g>
		<g>
			<rect x="94.057" y="183.972" fill="#A57453" width="97.878" height="40.479"/>
		</g>
		<g>
			<rect x="74.314" y="224.451" fill="#3CAADC" width="97.878" height="29.049"/>
		</g>
		<g>
			<rect x="85.25" y="154.923" fill="#EF4460" width="76.007" height="29.049"/>
		</g>
		<g>
			<path fill="#F5C84C" d="M104.993,196.386v15.65c0,1.117,0.906,2.023,2.023,2.023h71.959c1.117,0,2.023-0.906,2.023-2.023v-15.65
				c0-1.117-0.906-2.023-2.023-2.023h-71.959C105.899,194.362,104.993,195.268,104.993,196.386z"/>
		</g>
		<g>
			<rect x="85.25" y="224.451" fill="#087EBF" width="76.007" height="29.049"/>
		</g>
		<g>
			<path fill="#DAE6F1" d="M207.939,125.874H79.993c-8.022,0-14.524,6.503-14.524,14.525l0,0c0,8.022,6.503,14.524,14.524,14.524
				h127.946V125.874z"/>
		</g>
		<g>
			<path fill="#F5C84C" d="M150.438,119.879c0-3.297-2.698-5.995-5.995-5.995h-30.909c-3.297,0-5.995,2.698-5.995,5.995
				c0,3.297,2.698,5.995,5.995,5.995h30.909C147.74,125.874,150.438,123.177,150.438,119.879z"/>
		</g>
		<g>
			<path fill="#818182" d="M142.814,113.885v-10.379c0-4.608-3.77-8.377-8.377-8.377h-10.896c-4.608,0-8.377,3.77-8.377,8.377
				v10.379H142.814z"/>
		</g>
		<g>
			<path fill="#F5C84C" d="M190.541,73.791h-36.828c-3.297,0-5.995,2.698-5.995,5.995c0,3.297,2.698,5.995,5.995,5.995h36.828
				c3.297,0,5.995-2.698,5.995-5.995C196.535,76.488,193.838,73.791,190.541,73.791z"/>
		</g>
		<g>
			<circle fill="#F5C84C" cx="172.127" cy="35.184" r="7.09"/>
		</g>
		<g>
			<path fill="#818182" d="M153.839,85.78c1.69,4.831,4.556,9.106,8.273,12.471c2.219,2.009,5.109,3.12,8.103,3.12h3.822
				c2.994,0,5.884-1.111,8.103-3.12c3.717-3.365,6.582-7.64,8.273-12.471H153.839z"/>
		</g>
		<g>
			<path fill="#F5C84C" d="M104.264,73.791H67.436c-3.297,0-5.995,2.698-5.995,5.995c0,3.297,2.698,5.995,5.995,5.995h36.828
				c3.297,0,5.995-2.698,5.995-5.995C110.259,76.488,107.561,73.791,104.264,73.791z"/>
		</g>
		<g>
			<circle fill="#F5C84C" cx="85.85" cy="35.184" r="7.09"/>
		</g>
		<g>
			<path fill="#818182" d="M67.563,85.78c1.69,4.831,4.556,9.106,8.273,12.471c2.219,2.009,5.109,3.12,8.103,3.12h3.822
				c2.994,0,5.884-1.111,8.103-3.12c3.717-3.365,6.582-7.64,8.273-12.471H67.563z"/>
		</g>
		<g>
			<path fill="#F5C84C" d="M139.491,29.705c-1.731-2.126-3.267-2.955-5.478-2.955c-3.29,0-6.311,0-10.049,0
				c-2.211,0-3.747,0.828-5.478,2.955c-0.345,0.424-0.703,0.831-1.069,1.227l4.986,64.283c0.373-0.051,0.751-0.087,1.138-0.087
				h10.896c0.387,0,0.764,0.036,1.138,0.087l4.986-64.283C140.194,30.536,139.836,30.129,139.491,29.705z"/>
		</g>
		<g>
			<path fill="#F5C84C" d="M123.964,26.75c3.738,0,6.759,0,10.049,0c1.299,0,2.363,0.297,3.372,0.964l-2.027-10.48
				c-1.355-7.007-11.383-7.007-12.739,0l-2.027,10.48C121.601,27.047,122.665,26.75,123.964,26.75z"/>
		</g>
		<g>
			<path fill="#FC657E" d="M241.137,140.2c-3.1-0.6-5.6-3-6.2-6.1c0-0.1-0.3-0.1-0.3,0c-0.6,3.1-3.1,5.5-6.2,6.1
				c-0.1,0-0.1,0.2,0,0.3c3.1,0.6,5.6,3,6.2,6.1c0,0.1,0.3,0.1,0.3,0c0.6-3.1,3.1-5.5,6.2-6.1
				C241.238,140.4,241.238,140.2,241.137,140.2z"/>
		</g>
		<g>
			<path fill="#70D6F9" d="M206.137,29.5h2.3v2.3c0,1.8,1.4,3.2,3.2,3.2c1.7,0,3.2-1.4,3.2-3.1v-0.1v-2.3h2.3c1.8,0,3.2-1.4,3.2-3.2
				c0-1.7-1.4-3.2-3.1-3.2h-0.1h-2.3v-2.3c0-1.8-1.4-3.2-3.2-3.2c-1.7,0-3.2,1.4-3.2,3.1v0.1v2.3h-2.3c-1.8,0-3.2,1.4-3.2,3.2
				C202.838,28,204.238,29.5,206.137,29.5C206.038,29.5,206.038,29.5,206.137,29.5z"/>
		</g>
		<g>
			<circle fill="#F5C84C" cx="183.538" cy="3.4" r="3.4"/>
		</g>
		<g>
			<circle fill="#87D147" cx="43.538" cy="204.4" r="3.4"/>
		</g>
		<g>
			<path fill="#F5C84C" d="M14.938,169.2c4.5-0.8,8-4.3,8.9-8.7c0-0.2,0.4-0.2,0.4,0c0.9,4.4,4.4,7.9,8.9,8.7c0.2,0,0.2,0.3,0,0.4
				c-4.5,0.8-8,4.3-8.9,8.7c0,0.2-0.4,0.2-0.4,0c-0.9-4.4-4.4-7.9-8.9-8.7C14.738,169.5,14.738,169.2,14.938,169.2z"/>
		</g>
		<g>
			<path d="M194.662,256H51.844c-4.179,0-7.579-3.4-7.579-7.579V229.53c0-4.179,3.4-7.579,7.579-7.579h142.818
				c4.179,0,7.579,3.4,7.579,7.579v18.891C202.241,252.6,198.841,256,194.662,256z M51.844,226.951
				c-1.422,0-2.579,1.157-2.579,2.579v18.891c0,1.422,1.157,2.579,2.579,2.579h142.818c1.422,0,2.579-1.157,2.579-2.579V229.53
				c0-1.422-1.157-2.579-2.579-2.579H51.844z"/>
		</g>
		<g>
			<path d="M214.405,226.951H71.587c-4.179,0-7.579-3.4-7.579-7.579v-30.321c0-4.179,3.4-7.579,7.579-7.579h142.818
				c4.179,0,7.579,3.4,7.579,7.579v30.321C221.983,223.551,218.583,226.951,214.405,226.951z M71.587,186.472
				c-1.422,0-2.579,1.157-2.579,2.579v30.321c0,1.422,1.157,2.579,2.579,2.579h142.818c1.422,0,2.579-1.157,2.579-2.579v-30.321
				c0-1.422-1.157-2.579-2.579-2.579H71.587z"/>
		</g>
		<g>
			<path d="M194.662,186.472H51.844c-4.179,0-7.579-3.399-7.579-7.578v-18.892c0-4.179,3.4-7.579,7.579-7.579h142.818
				c4.179,0,7.579,3.4,7.579,7.579v18.892C202.241,183.072,198.841,186.472,194.662,186.472z M51.844,157.423
				c-1.422,0-2.579,1.157-2.579,2.579v18.892c0,1.422,1.157,2.578,2.579,2.578h142.818c1.422,0,2.579-1.156,2.579-2.578v-18.892
				c0-1.422-1.157-2.579-2.579-2.579H51.844z"/>
		</g>
		<g>
			<g>
				<path d="M213.366,157.423H79.993c-9.387,0-17.024-7.637-17.024-17.024s7.637-17.024,17.024-17.024h133.373
					c1.381,0,2.5,1.119,2.5,2.5s-1.119,2.5-2.5,2.5H79.993c-6.63,0-12.024,5.395-12.024,12.024s5.394,12.024,12.024,12.024h133.373
					c1.381,0,2.5,1.119,2.5,2.5S214.747,157.423,213.366,157.423z"/>
			</g>
		</g>
		<g>
			<path d="M159.407,41.65c-8.524,0-16.49-3.778-21.855-10.367c-1.399-1.719-2.29-2.033-3.54-2.033h-10.049
				c-1.25,0-2.14,0.314-3.539,2.033c-5.365,6.589-13.331,10.367-21.855,10.367c-2.073,0-4.151-0.23-6.177-0.685
				c-1.347-0.302-2.195-1.639-1.893-2.986c0.302-1.347,1.643-2.193,2.986-1.893c1.667,0.374,3.378,0.563,5.083,0.563
				c7.015,0,13.567-3.106,17.978-8.523c2.212-2.718,4.43-3.877,7.417-3.877h10.049c2.987,0,5.205,1.159,7.417,3.877
				c4.411,5.417,10.963,8.523,17.978,8.523c1.833,0,3.669-0.219,5.457-0.65c1.344-0.327,2.693,0.501,3.017,1.843
				s-0.501,2.693-1.843,3.017C163.866,41.385,161.635,41.65,159.407,41.65z"/>
		</g>
		<g>
			<path d="M154.384,75.696c-0.328,0-0.662-0.065-0.982-0.202c-1.27-0.544-1.858-2.013-1.315-3.282l13.364-31.229
				c0.543-1.271,2.012-1.858,3.282-1.315c1.27,0.544,1.858,2.013,1.315,3.282l-13.364,31.229
				C156.278,75.128,155.354,75.696,154.384,75.696z"/>
		</g>
		<g>
			<path d="M189.869,75.696c-0.97,0-1.894-0.568-2.299-1.518L174.206,42.95c-0.543-1.27,0.045-2.738,1.315-3.282
				c1.269-0.539,2.739,0.046,3.282,1.315l13.364,31.229c0.543,1.27-0.045,2.738-1.315,3.282
				C190.531,75.631,190.197,75.696,189.869,75.696z"/>
		</g>
		<g>
			<path d="M68.108,75.696c-0.328,0-0.662-0.065-0.982-0.202c-1.27-0.544-1.858-2.013-1.315-3.282l13.364-31.229
				c0.543-1.271,2.011-1.858,3.282-1.315c1.27,0.544,1.858,2.013,1.315,3.282L70.407,74.179
				C70.001,75.128,69.078,75.696,68.108,75.696z"/>
		</g>
		<g>
			<path d="M103.593,75.696c-0.97,0-1.894-0.568-2.299-1.518L87.929,42.95c-0.543-1.27,0.045-2.738,1.315-3.282
				c1.269-0.539,2.739,0.046,3.282,1.315l13.364,31.229c0.543,1.27-0.045,2.738-1.315,3.282
				C104.255,75.631,103.921,75.696,103.593,75.696z"/>
		</g>
		<g>
			<path d="M194.431,138.058H80.13c-1.381,0-2.5-1.119-2.5-2.5s1.119-2.5,2.5-2.5h114.301c1.381,0,2.5,1.119,2.5,2.5
				S195.812,138.058,194.431,138.058z"/>
		</g>
		<g>
			<path d="M194.431,147.74H80.13c-1.381,0-2.5-1.119-2.5-2.5s1.119-2.5,2.5-2.5h114.301c1.381,0,2.5,1.119,2.5,2.5
				S195.812,147.74,194.431,147.74z"/>
		</g>
		<g>
			<path d="M74.314,185.25c-1.381,0-2.5-1.119-2.5-2.5v-26.625c0-1.381,1.119-2.5,2.5-2.5s2.5,1.119,2.5,2.5v26.625
				C76.814,184.131,75.695,185.25,74.314,185.25z"/>
		</g>
		<g>
			<path d="M172.192,184.938c-1.381,0-2.5-1.119-2.5-2.5v-26.125c0-1.381,1.119-2.5,2.5-2.5s2.5,1.119,2.5,2.5v26.125
				C174.692,183.819,173.573,184.938,172.192,184.938z"/>
		</g>
		<g>
			<path d="M191.935,225.375c-1.381,0-2.5-1.119-2.5-2.5v-37.208c0-1.381,1.119-2.5,2.5-2.5s2.5,1.119,2.5,2.5v37.208
				C194.435,224.256,193.315,225.375,191.935,225.375z"/>
		</g>
		<g>
			<path d="M94.057,225.583c-1.381,0-2.5-1.119-2.5-2.5v-37.677c0-1.381,1.119-2.5,2.5-2.5s2.5,1.119,2.5,2.5v37.677
				C96.557,224.464,95.438,225.583,94.057,225.583z"/>
		</g>
		<g>
			<path d="M172.192,254.417c-1.381,0-2.5-1.119-2.5-2.5v-26c0-1.381,1.119-2.5,2.5-2.5s2.5,1.119,2.5,2.5v26
				C174.692,253.298,173.573,254.417,172.192,254.417z"/>
		</g>
		<g>
			<path d="M74.314,254.688c-1.381,0-2.5-1.119-2.5-2.5v-26.271c0-1.381,1.119-2.5,2.5-2.5s2.5,1.119,2.5,2.5v26.271
				C76.814,253.569,75.695,254.688,74.314,254.688z"/>
		</g>
		<g>
			<path d="M85.25,185.25c-1.381,0-2.5-1.119-2.5-2.5v-26.625c0-1.381,1.119-2.5,2.5-2.5s2.5,1.119,2.5,2.5v26.625
				C87.75,184.131,86.63,185.25,85.25,185.25z"/>
		</g>
		<g>
			<path d="M161.256,184.938c-1.381,0-2.5-1.119-2.5-2.5v-26.125c0-1.381,1.119-2.5,2.5-2.5s2.5,1.119,2.5,2.5v26.125
				C163.756,183.819,162.637,184.938,161.256,184.938z"/>
		</g>
		<g>
			<path d="M178.976,216.56h-71.959c-2.494,0-4.523-2.029-4.523-4.523v-15.65c0-2.494,2.029-4.523,4.523-4.523h71.959
				c2.494,0,4.523,2.029,4.523,4.523v15.65C183.499,214.53,181.47,216.56,178.976,216.56z M107.493,211.56h71.006v-14.697h-71.006
				V211.56z M178.976,196.862h0.01H178.976z"/>
		</g>
		<g>
			<path d="M161.256,254.417c-1.381,0-2.5-1.119-2.5-2.5v-26c0-1.381,1.119-2.5,2.5-2.5s2.5,1.119,2.5,2.5v26
				C163.756,253.298,162.637,254.417,161.256,254.417z"/>
		</g>
		<g>
			<path d="M85.25,254.688c-1.381,0-2.5-1.119-2.5-2.5v-25.771c0-1.381,1.119-2.5,2.5-2.5s2.5,1.119,2.5,2.5v25.771
				C87.75,253.569,86.63,254.688,85.25,254.688z"/>
		</g>
		<g>
			<path d="M207.939,156.063c-1.381,0-2.5-1.119-2.5-2.5v-26.438c0-1.381,1.119-2.5,2.5-2.5s2.5,1.119,2.5,2.5v26.438
				C210.439,154.944,209.32,156.063,207.939,156.063z"/>
		</g>
		<g>
			<path d="M144.443,128.374h-30.909c-4.684,0-8.495-3.811-8.495-8.495c0-4.684,3.811-8.494,8.495-8.494h30.909
				c4.684,0,8.495,3.811,8.495,8.494C152.937,124.563,149.127,128.374,144.443,128.374z M113.534,116.385
				c-1.927,0-3.495,1.567-3.495,3.494s1.568,3.495,3.495,3.495h30.909c1.927,0,3.495-1.568,3.495-3.495s-1.568-3.494-3.495-3.494
				H113.534z"/>
		</g>
		<g>
			<path d="M142.813,115.438c-1.381,0-2.5-1.119-2.5-2.5v-9.433c0-3.241-2.637-5.878-5.877-5.878h-10.896
				c-3.241,0-5.877,2.637-5.877,5.878v9.119c0,1.381-1.119,2.5-2.5,2.5s-2.5-1.119-2.5-2.5v-9.119
				c0-5.998,4.879-10.878,10.877-10.878h10.896c5.998,0,10.877,4.88,10.877,10.878v9.433
				C145.313,114.319,144.194,115.438,142.813,115.438z"/>
		</g>
		<g>
			<path d="M190.541,88.28h-36.828c-4.684,0-8.495-3.811-8.495-8.495c0-4.684,3.811-8.494,8.495-8.494h36.828
				c4.684,0,8.495,3.811,8.495,8.494C199.035,84.47,195.225,88.28,190.541,88.28z M153.712,76.291c-1.927,0-3.495,1.567-3.495,3.494
				s1.568,3.495,3.495,3.495h36.828c1.927,0,3.495-1.568,3.495-3.495s-1.568-3.494-3.495-3.494H153.712z"/>
		</g>
		<g>
			<path d="M172.126,44.774c-5.288,0-9.59-4.302-9.59-9.59s4.302-9.59,9.59-9.59s9.59,4.302,9.59,9.59
				S177.415,44.774,172.126,44.774z M172.126,30.595c-2.531,0-4.59,2.059-4.59,4.59s2.059,4.59,4.59,4.59s4.59-2.059,4.59-4.59
				S174.657,30.595,172.126,30.595z"/>
		</g>
		<g>
			<path d="M174.038,103.871h-3.822c-3.625,0-7.099-1.338-9.781-3.767c-3.776-3.419-6.745-7.739-8.585-12.495
				c-0.498-1.288,0.142-2.735,1.43-3.234c1.288-0.497,2.735,0.142,3.233,1.43c1.56,4.032,4.077,7.695,7.278,10.593
				c1.762,1.596,4.043,2.474,6.425,2.474h3.822c2.382,0,4.664-0.878,6.426-2.474c3.073-2.782,5.525-6.283,7.091-10.124
				c0.521-1.277,1.981-1.895,3.259-1.37c1.279,0.521,1.893,1.98,1.371,3.259c-1.848,4.53-4.74,8.66-8.366,11.942
				C181.136,102.533,177.663,103.871,174.038,103.871z"/>
		</g>
		<g>
			<path d="M104.264,88.28H67.437c-4.684,0-8.495-3.811-8.495-8.495c0-4.684,3.811-8.494,8.495-8.494h36.828
				c4.684,0,8.495,3.811,8.495,8.494C112.759,84.47,108.948,88.28,104.264,88.28z M67.437,76.291c-1.927,0-3.495,1.567-3.495,3.494
				s1.568,3.495,3.495,3.495h36.828c1.927,0,3.495-1.568,3.495-3.495s-1.568-3.494-3.495-3.494H67.437z"/>
		</g>
		<g>
			<path d="M85.85,44.774c-5.288,0-9.589-4.302-9.589-9.59s4.302-9.59,9.589-9.59c5.288,0,9.59,4.302,9.59,9.59
				S91.138,44.774,85.85,44.774z M85.85,30.595c-2.531,0-4.589,2.059-4.589,4.59s2.059,4.59,4.589,4.59s4.59-2.059,4.59-4.59
				S88.381,30.595,85.85,30.595z"/>
		</g>
		<g>
			<path d="M87.761,103.871h-3.822c-3.625,0-7.099-1.338-9.781-3.767c-3.736-3.383-6.684-7.651-8.526-12.345
				c-0.504-1.285,0.128-2.736,1.414-3.24c1.283-0.507,2.736,0.128,3.24,1.414c1.562,3.979,4.061,7.597,7.228,10.464
				c1.762,1.596,4.043,2.474,6.425,2.474h3.822c2.382,0,4.664-0.878,6.426-2.474c3.073-2.782,5.525-6.283,7.092-10.125
				c0.521-1.279,1.98-1.894,3.259-1.372c1.278,0.521,1.893,1.98,1.371,3.259c-1.848,4.532-4.741,8.663-8.366,11.945
				C94.86,102.533,91.386,103.871,87.761,103.871z"/>
		</g>
		<g>
			<path d="M135.641,96.886c-0.065,0-0.13-0.002-0.196-0.008c-1.376-0.106-2.406-1.309-2.299-2.686l4.868-62.755
				c0.107-1.377,1.307-2.427,2.686-2.299c1.376,0.106,2.406,1.309,2.299,2.686l-4.868,62.755
				C138.029,95.89,136.934,96.886,135.641,96.886z"/>
		</g>
		<g>
			<path d="M122.335,96.886c-1.293,0-2.388-0.996-2.49-2.307l-4.871-62.793c-0.106-1.377,0.923-2.579,2.299-2.686
				c1.373-0.131,2.579,0.922,2.686,2.299l4.871,62.793c0.106,1.377-0.923,2.579-2.299,2.686
				C122.466,96.884,122.4,96.886,122.335,96.886z"/>
		</g>
		<g>
			<path d="M120.652,29.917c-0.158,0-0.317-0.015-0.478-0.046c-1.355-0.262-2.242-1.573-1.979-2.929l1.97-10.184
				c0.842-4.354,4.389-7.28,8.824-7.28c4.436,0,7.982,2.926,8.824,7.28l1.94,10.03c0.262,1.355-0.625,2.667-1.98,2.929
				c-1.354,0.264-2.667-0.624-2.929-1.979l-1.94-10.03c-0.46-2.381-2.324-3.229-3.915-3.229c-1.59,0-3.454,0.849-3.915,3.229
				l-1.97,10.184C122.872,29.087,121.825,29.917,120.652,29.917z"/>
		</g>
	</g>
</g>
<g id="Layer_58">
</g>
<g id="Layer_59">
</g>
<g id="Layer_60">
</g>
<g id="Layer_61">
</g>
<g id="Layer_62">
</g>
<g id="Layer_63">
</g>
<g id="Layer_64">
</g>
<g id="Layer_65">
</g>
<g id="Layer_66">
</g>
<g id="Layer_67">
</g>
<g id="Layer_68">
</g>
<g id="Layer_69">
</g>
<g id="Layer_70">
</g>
<g id="Layer_71">
</g>
<g id="Layer_72">
</g>
<g id="Layer_73">
</g>
<g id="Layer_74">
</g>
<g id="Layer_75">
</g>
<g id="Layer_76">
</g>
<g id="Layer_77">
</g>
<g id="Layer_78">
</g>
<g id="Layer_79">
</g>
<g id="Layer_80">
</g>
<g id="Layer_81">
</g>
<g id="Layer_82">
</g>
<g id="Layer_83">
</g>
<g id="Layer_84">
</g>
<g id="Layer_85">
</g>
<g id="Layer_86">
</g>
<g id="Layer_87">
</g>
<g id="Layer_88">
</g>
<g id="Layer_89">
</g>
<g id="Layer_90">
</g>
<g id="Layer_91">
</g>
<g id="Layer_92">
</g>
<g id="Layer_93">
</g>
<g id="Layer_94">
</g>
<g id="Layer_95">
</g>
</svg>
