<?xml version="1.0" encoding="utf-8"?>
<!-- Generator: Adobe Illustrator 24.0.0, SVG Export Plug-In . SVG Version: 6.00 Build 0)  -->
<svg version="1.1" xmlns="http://www.w3.org/2000/svg" xmlns:xlink="http://www.w3.org/1999/xlink" x="0px" y="0px"
	 viewBox="0 0 256 256" enable-background="new 0 0 256 256" xml:space="preserve">
<g id="Layer_1">
</g>
<g id="Layer_2">
</g>
<g id="Layer_3">
</g>
<g id="Layer_4">
</g>
<g id="Layer_5">
</g>
<g id="Layer_6">
</g>
<g id="Layer_7">
</g>
<g id="Layer_8">
</g>
<g id="Layer_9">
</g>
<g id="Layer_10">
</g>
<g id="Layer_11">
</g>
<g id="Layer_12">
</g>
<g id="Layer_13">
</g>
<g id="Layer_14">
</g>
<g id="Layer_15">
</g>
<g id="Layer_16">
</g>
<g id="Layer_17">
</g>
<g id="Layer_18">
</g>
<g id="Layer_19">
</g>
<g id="Layer_20">
</g>
<g id="Layer_21">
</g>
<g id="Layer_22">
</g>
<g id="Layer_23">
</g>
<g id="Layer_24">
</g>
<g id="Layer_25">
</g>
<g id="Layer_26">
</g>
<g id="Layer_27">
</g>
<g id="Layer_28">
</g>
<g id="Layer_29">
</g>
<g id="Layer_30">
</g>
<g id="Layer_31">
</g>
<g id="Layer_32">
</g>
<g id="Layer_33">
</g>
<g id="Layer_34">
</g>
<g id="Layer_35">
</g>
<g id="Layer_36">
</g>
<g id="Layer_37">
</g>
<g id="Layer_38">
</g>
<g id="Layer_39">
</g>
<g id="Layer_40">
</g>
<g id="Layer_41">
</g>
<g id="Layer_42">
</g>
<g id="Layer_43">
</g>
<g id="Layer_44">
</g>
<g id="Layer_45">
</g>
<g id="Layer_46">
</g>
<g id="Layer_47">
</g>
<g id="Layer_48">
</g>
<g id="Layer_49">
</g>
<g id="Layer_50">
</g>
<g id="Layer_51">
</g>
<g id="Layer_52">
</g>
<g id="Layer_53">
</g>
<g id="Layer_54">
</g>
<g id="Layer_55">
</g>
<g id="Layer_56">
</g>
<g id="Layer_57">
</g>
<g id="Layer_58">
</g>
<g id="Layer_59">
</g>
<g id="Layer_60">
</g>
<g id="Layer_61">
</g>
<g id="Layer_62">
</g>
<g id="Layer_63">
</g>
<g id="Layer_64">
</g>
<g id="Layer_65">
</g>
<g id="Layer_66">
</g>
<g id="Layer_67">
</g>
<g id="Layer_68">
</g>
<g id="Layer_69">
</g>
<g id="Layer_70">
</g>
<g id="Layer_71">
</g>
<g id="Layer_72">
</g>
<g id="Layer_73">
</g>
<g id="Layer_74">
</g>
<g id="Layer_75">
</g>
<g id="Layer_76">
</g>
<g id="Layer_77">
</g>
<g id="Layer_78">
</g>
<g id="Layer_79">
</g>
<g id="Layer_80">
</g>
<g id="Layer_81">
</g>
<g id="Layer_82">
</g>
<g id="Layer_83">
</g>
<g id="Layer_84">
</g>
<g id="Layer_85">
</g>
<g id="Layer_86">
</g>
<g id="Layer_87">
</g>
<g id="Layer_88">
</g>
<g id="Layer_89">
</g>
<g id="Layer_90">
</g>
<g id="Layer_91">
</g>
<g id="Layer_92">
</g>
<g id="Layer_93">
	<g>
		<g>
			<path fill="#70D6F9" d="M157.717,13.5c-14.828,0-48.308,0-59.434,0c-4.337,0-7.885,3.548-7.885,7.885v30.857
				c0,4.337,3.548,7.885,7.885,7.885h4.656c0.695,0,1.258,0.563,1.258,1.258v7.622c0,1.108,1.328,1.675,2.128,0.908l8.582-8.224
				c1.047-1.004,2.442-1.564,3.893-1.564c3.752,0,14.67,0,18.4,0c1.451,0,2.846,0.561,3.893,1.564l8.582,8.224
				c0.8,0.767,2.128,0.2,2.128-0.908v-7.622c0-0.695,0.563-1.258,1.258-1.258h4.656c4.337,0,7.885-3.548,7.885-7.885V21.385
				C165.602,17.048,162.054,13.5,157.717,13.5z"/>
		</g>
		<g>
			<path fill="#70D6F9" d="M249.013,80.2c-3.1-0.6-5.6-3-6.2-6.1c0-0.1-0.3-0.1-0.3,0c-0.6,3.1-3.1,5.5-6.2,6.1
				c-0.1,0-0.1,0.2,0,0.3c3.1,0.6,5.6,3,6.2,6.1c0,0.1,0.3,0.1,0.3,0c0.6-3.1,3.1-5.5,6.2-6.1
				C249.113,80.4,249.113,80.2,249.013,80.2z"/>
		</g>
		<g>
			<path fill="#FC657E" d="M203.013,27.5h2.3v2.3c0,1.8,1.4,3.2,3.2,3.2c1.7,0,3.2-1.4,3.2-3.1v-0.1v-2.3h2.3c1.8,0,3.2-1.4,3.2-3.2
				c0-1.7-1.4-3.2-3.1-3.2h-0.1h-2.3v-2.3c0-1.8-1.4-3.2-3.2-3.2c-1.7,0-3.2,1.4-3.2,3.1v0.1v2.3h-2.3c-1.8,0-3.2,1.4-3.2,3.2
				C199.713,26,201.113,27.5,203.013,27.5C202.913,27.5,202.913,27.5,203.013,27.5z"/>
		</g>
		<g>
			<circle fill="#F5C84C" cx="179.413" cy="3.4" r="3.4"/>
		</g>
		<g>
			<circle fill="#87D147" cx="43.413" cy="240.4" r="3.4"/>
		</g>
		<g>
			<path fill="#F5C84C" d="M71.813,246.75c4.5-0.8,8-4.3,8.9-8.7c0-0.2,0.4-0.2,0.4,0c0.9,4.4,4.4,7.9,8.9,8.7c0.2,0,0.2,0.3,0,0.4
				c-4.5,0.8-8,4.3-8.9,8.7c0,0.2-0.4,0.2-0.4,0c-0.9-4.4-4.4-7.9-8.9-8.7C71.613,247.05,71.613,246.75,71.813,246.75z"/>
		</g>
		<g>
			<path d="M105.456,72.768c-0.497,0-0.998-0.099-1.475-0.302c-1.388-0.592-2.284-1.949-2.284-3.458v-6.38h-3.414
				c-5.727,0-10.386-4.659-10.386-10.386V21.385C87.897,15.658,92.557,11,98.283,11h59.434c5.727,0,10.386,4.658,10.386,10.385
				v30.857c0,5.727-4.659,10.386-10.386,10.386h-3.414v6.38c0,1.509-0.896,2.866-2.284,3.458c-1.388,0.588-2.986,0.298-4.075-0.746
				l-8.58-8.223c-0.585-0.561-1.354-0.869-2.163-0.869h-18.4c-0.81,0-1.578,0.309-2.163,0.869l-8.583,8.224
				C107.341,72.406,106.407,72.768,105.456,72.768z M118.8,57.628h18.4c2.104,0,4.102,0.803,5.622,2.259l6.48,6.21v-4.71
				c0-2.072,1.686-3.759,3.758-3.759h4.656c2.97,0,5.386-2.416,5.386-5.386V21.385c0-2.969-2.416-5.385-5.386-5.385H98.283
				c-2.97,0-5.386,2.416-5.386,5.385v30.857c0,2.97,2.416,5.386,5.386,5.386h4.656c2.072,0,3.758,1.687,3.758,3.759v4.71l6.48-6.209
				C114.698,58.431,116.694,57.628,118.8,57.628z"/>
		</g>
		<g>
			<path fill="#DAE6F1" d="M107.433,175.659l-1.521-26.228c-0.208-3.728-2.815-6.887-6.435-7.798l-11.704-2.946
				c-0.958-0.241-1.878-0.51-2.76-0.791l-10.615,12.261c-0.917,1.06-2.52,1.175-3.58,0.258l-4.908-4.25
				c-0.705-0.61-0.981-1.521-0.825-2.376h-4.909c0.156,0.855-0.121,1.766-0.825,2.376l-4.909,4.25
				c-1.06,0.917-2.662,0.802-3.58-0.258l-10.608-12.253c-0.866,0.271-1.774,0.533-2.766,0.783l-11.704,2.946
				c-3.62,0.911-6.228,4.071-6.435,7.798l-1.521,26.228H107.433z"/>
		</g>
		<g>
			<path fill="#F9D0B4" d="M81.16,79.245c-1.414-1.482-3.712-1.619-5.323-0.354c-2.548,2-6.956,4.472-13.182,4.472
				c-6.241,0-10.673-2.484-13.231-4.486c-1.61-1.26-3.904-1.119-5.314,0.361l-0.007,0.008c-1.982,2.079-3.088,4.841-3.088,7.713
				v18.142c0,11.89,9.728,21.617,21.617,21.617h0c11.89,0,21.617-9.728,21.617-21.617V86.958
				C84.248,84.086,83.142,81.324,81.16,79.245z"/>
		</g>
		<g>
			<path fill="#F9D0B4" d="M85.635,88.626c-0.472,0-0.935,0.04-1.387,0.11c0,2.3,0,12.946,0,16.365c0,0.488-0.022,0.97-0.054,1.45
				c0.471,0.076,0.95,0.126,1.442,0.126c4.985,0,9.025-4.041,9.025-9.025C94.661,92.666,90.62,88.626,85.635,88.626z"/>
		</g>
		<g>
			<path fill="#F9D0B4" d="M41.013,105.101c0-2.24,0-11.912,0-16.365c-0.452-0.07-0.915-0.11-1.387-0.11
				c-4.985,0-9.025,4.041-9.025,9.025c0,4.985,4.041,9.025,9.025,9.025c0.492,0,0.971-0.05,1.442-0.126v0
				C41.035,106.071,41.013,105.588,41.013,105.101z"/>
		</g>
		<g>
			<path fill="#5B5D60" d="M84.167,70.186c-0.724,0-1.352-0.558-1.361-1.282C82.64,56.857,68.885,54.595,55.186,56.96
				c-11.614,2.006-20.103,12.077-20.103,23.863v9.038c1.336-0.781,2.885-1.236,4.543-1.236c0.472,0,0.935,0.04,1.387,0.11v-1.777
				c0-2.872,1.106-5.635,3.088-7.713l0.007-0.008c1.411-1.479,3.704-1.621,5.314-0.361c2.558,2.002,6.99,4.486,13.231,4.486
				c6.226,0,10.635-2.472,13.182-4.472c1.611-1.265,3.91-1.128,5.323,0.354c1.982,2.079,3.088,4.841,3.088,7.713v1.777
				c0.452-0.07,0.915-0.11,1.387-0.11c1.679,0,3.245,0.467,4.591,1.265c0-2.522,0-5.113,0-7.421
				C90.226,71.684,86.331,70.186,84.167,70.186z"/>
		</g>
		<g>
			<path fill="#3895ff" d="M70.819,150.415c1.06,0.917,2.663,0.802,3.58-0.258l10.615-12.261c-4.827-1.534-8.312-3.442-8.259-3.415
				c-0.952-0.47-1.774-1.127-2.43-1.913l-8.672,10.017c-0.918,1.06-0.802,2.663,0.257,3.58L70.819,150.415z"/>
		</g>
		<g>
			<path fill="#EDF4FC" d="M50.862,150.157c0.917,1.06,2.52,1.175,3.58,0.258l4.909-4.25c1.06-0.917,1.175-2.52,0.258-3.58
				l-8.672-10.017c-0.656,0.786-1.478,1.443-2.43,1.913c-2.697,1.33-5.136,2.448-8.252,3.423L50.862,150.157z"/>
		</g>
		<g>
			<path fill="#F9D0B4" d="M59.608,142.585c0.307,0.355,0.489,0.773,0.568,1.204h4.909c0.079-0.431,0.26-0.849,0.568-1.204
				l8.672-10.017c-1.101-1.319-1.735-3.003-1.735-4.785v-3.518c-2.985,1.563-6.373,2.453-9.959,2.453
				c-3.587,0-6.973-0.89-9.959-2.453v3.518c0,1.782-0.635,3.466-1.735,4.785L59.608,142.585z"/>
		</g>
		<g>
			<path fill="#F98FA6" d="M55.038,149.899l2.608,6.263h9.969l2.608-6.263l-4.313-3.734c-0.704-0.61-0.981-1.521-0.825-2.376h-4.909
				c0.156,0.855-0.121,1.766-0.825,2.376L55.038,149.899z"/>
		</g>
		<g>
			<polygon fill="#FC657E" points="69.664,175.659 67.615,156.163 57.646,156.163 55.597,175.659 			"/>
		</g>
		<g>
			<path d="M107.358,176.911c-1.314,0-2.417-1.026-2.493-2.355l-1.449-24.979c-0.148-2.655-1.976-4.871-4.549-5.519l-11.704-2.945
				c-0.948-0.24-1.898-0.513-2.907-0.834c-1.316-0.418-2.043-1.824-1.625-3.14c0.418-1.316,1.824-2.049,3.14-1.624
				c0.912,0.29,1.767,0.535,2.614,0.749l11.701,2.944c4.707,1.185,8.051,5.237,8.321,10.085l1.448,24.974
				c0.08,1.378-0.973,2.561-2.351,2.641C107.457,176.91,107.407,176.911,107.358,176.911z"/>
		</g>
		<g>
			<path d="M17.921,176.597c-0.049,0-0.098-0.001-0.147-0.004c-1.378-0.08-2.431-1.263-2.351-2.641l1.43-24.665
				c0.27-4.842,3.614-8.895,8.321-10.079l11.704-2.945c0.873-0.22,1.732-0.463,2.628-0.744c1.32-0.414,2.721,0.32,3.133,1.638
				c0.414,1.317-0.32,2.721-1.637,3.134c-0.987,0.31-1.937,0.578-2.903,0.821l-11.704,2.946c-2.574,0.647-4.402,2.863-4.55,5.514
				l-1.431,24.67C20.337,175.57,19.235,176.597,17.921,176.597z"/>
		</g>
		<g>
			<path d="M62.631,129.219c-13.298,0-24.118-10.819-24.118-24.118V86.958c0-3.53,1.342-6.882,3.779-9.438
				c2.306-2.417,6.032-2.677,8.671-0.612c2.305,1.805,6.204,3.955,11.691,3.955c5.473,0,9.35-2.142,11.639-3.938
				c2.644-2.074,6.374-1.817,8.675,0.596h0c2.437,2.557,3.779,5.908,3.779,9.438v18.143
				C86.748,118.399,75.929,129.219,62.631,129.219z M46.954,80.521c-0.381,0-0.757,0.148-1.036,0.441
				c-1.554,1.629-2.405,3.756-2.405,5.995v18.143c0,10.542,8.576,19.118,19.117,19.118c10.542,0,19.118-8.576,19.118-19.118V86.958
				c0-2.239-0.852-4.366-2.398-5.987c-0.516-0.541-1.362-0.591-1.969-0.113c-2.909,2.283-7.825,5.005-14.727,5.005
				c-6.912,0-11.848-2.729-14.772-5.018C47.605,80.628,47.277,80.521,46.954,80.521z"/>
		</g>
		<g>
			<path d="M92.069,176.598c-1.381,0-2.5-1.119-2.5-2.5v-16.345c0-1.381,1.119-2.5,2.5-2.5s2.5,1.119,2.5,2.5v16.345
				C94.569,175.479,93.45,176.598,92.069,176.598z"/>
		</g>
		<g>
			<path d="M33.192,176.598c-1.381,0-2.5-1.119-2.5-2.5v-16.345c0-1.381,1.119-2.5,2.5-2.5s2.5,1.119,2.5,2.5v16.345
				C35.692,175.479,34.573,176.598,33.192,176.598z"/>
		</g>
		<g>
			<path d="M85.635,109.177c-1.381,0-2.5-1.119-2.5-2.5s1.119-2.5,2.5-2.5c3.598,0,6.525-2.928,6.525-6.525
				s-2.927-6.525-6.525-6.525c-1.381,0-2.5-1.119-2.5-2.5s1.119-2.5,2.5-2.5c6.355,0,11.525,5.17,11.525,11.525
				S91.99,109.177,85.635,109.177z"/>
		</g>
		<g>
			<path d="M39.626,109.177c-6.355,0-11.525-5.17-11.525-11.525s5.17-11.525,11.525-11.525c1.381,0,2.5,1.119,2.5,2.5
				s-1.119,2.5-2.5,2.5c-3.598,0-6.525,2.928-6.525,6.525s2.927,6.525,6.525,6.525c1.381,0,2.5,1.119,2.5,2.5
				S41.007,109.177,39.626,109.177z"/>
		</g>
		<g>
			<path d="M35.083,91.711c-1.381,0-2.5-1.119-2.5-2.5v-8.388c0-13.035,9.327-24.107,22.177-26.327
				c6.565-1.132,18.631-2.161,25.676,3.689c2.903,2.41,4.522,5.628,4.821,9.577c3.191,0.458,7.469,3.218,7.469,14.707v6.605
				c0,1.381-1.119,2.5-2.5,2.5s-2.5-1.119-2.5-2.5V82.47c0-6.035-1.364-9.784-3.559-9.784c-2.101,0-3.833-1.682-3.861-3.748
				c-0.041-2.968-1.043-5.228-3.064-6.905c-3.959-3.288-12.043-4.264-21.631-2.608c-10.446,1.804-18.028,10.804-18.028,21.399v8.388
				C37.583,90.592,36.464,91.711,35.083,91.711z"/>
		</g>
		<g>
			<path d="M72.477,153.531c-1.169,0-2.343-0.402-3.294-1.226v-0.001l-4.909-4.25c-1.018-0.88-1.631-2.104-1.728-3.447
				c-0.096-1.342,0.335-2.642,1.216-3.659l8.672-10.017c0.479-0.554,1.176-0.921,1.913-0.863c0.733,0.007,1.427,0.335,1.896,0.897
				c0.448,0.537,0.992,0.966,1.617,1.273c0.041,0.021,0.08,0.041,0.119,0.063c0.196,0.105,3.426,1.825,7.792,3.212
				c0.801,0.255,1.421,0.896,1.649,1.704c0.228,0.81,0.034,1.68-0.516,2.315l-10.615,12.261
				C75.294,152.942,73.889,153.531,72.477,153.531z M72.455,148.524c0.015,0.014,0.04,0.012,0.054-0.004l8.191-9.46
				c-2.588-0.966-4.116-1.755-5.025-2.389l-0.025,0.052c-0.375-0.185-0.735-0.392-1.079-0.618l-7.027,8.116L72.455,148.524z"/>
		</g>
		<g>
			<path d="M52.785,153.531c-1.413,0-2.817-0.589-3.813-1.737l0,0l-10.608-12.253c-0.552-0.638-0.745-1.51-0.515-2.32
				s0.854-1.451,1.659-1.702c2.832-0.886,5.119-1.911,7.892-3.279c0.625-0.308,1.169-0.736,1.617-1.273
				c0.47-0.563,1.163-0.891,1.896-0.897c0.735-0.045,1.433,0.31,1.913,0.863l8.672,10.017c0.881,1.018,1.313,2.317,1.216,3.659
				c-0.097,1.343-0.71,2.567-1.728,3.448l-4.909,4.249C55.127,153.128,53.954,153.531,52.785,153.531z M52.752,148.521
				c0.014,0.017,0.039,0.02,0.054,0.004l4.909-4.249l-7.029-8.166c-0.343,0.226-0.702,0.431-1.074,0.614
				c-1.79,0.883-3.398,1.635-5.075,2.308L52.752,148.521z"/>
		</g>
		<g>
			<path d="M50.935,135.068c-0.565,0-1.133-0.19-1.601-0.581c-1.06-0.884-1.202-2.461-0.317-3.521
				c0.745-0.893,1.155-2.023,1.155-3.184v-2.945c0-1.381,1.119-2.5,2.5-2.5s2.5,1.119,2.5,2.5v2.945
				c0,2.329-0.822,4.598-2.316,6.387C52.361,134.763,51.65,135.068,50.935,135.068z"/>
		</g>
		<g>
			<path d="M74.327,135.068c-0.716,0-1.426-0.306-1.921-0.898c-1.494-1.789-2.316-4.058-2.316-6.387v-2.945
				c0-1.381,1.119-2.5,2.5-2.5s2.5,1.119,2.5,2.5v2.945c0,1.16,0.41,2.291,1.155,3.184c0.885,1.06,0.743,2.637-0.317,3.521
				C75.459,134.878,74.891,135.068,74.327,135.068z"/>
		</g>
		<g>
			<path d="M64.625,146.289h-3.594c-1.381,0-2.5-1.119-2.5-2.5s1.119-2.5,2.5-2.5h3.594c1.381,0,2.5,1.119,2.5,2.5
				S66.006,146.289,64.625,146.289z"/>
		</g>
		<g>
			<path d="M67.615,158.662h-9.969c-1.009,0-1.92-0.607-2.308-1.539l-2.262-5.432c-0.531-1.274,0.072-2.738,1.347-3.269
				c1.273-0.533,2.737,0.07,3.269,1.347l1.621,3.893h6.635l1.743-4.186c0.531-1.276,1.995-1.88,3.269-1.347
				c1.275,0.53,1.878,1.994,1.347,3.269l-2.384,5.725C69.535,158.055,68.625,158.662,67.615,158.662z"/>
		</g>
		<g>
			<path d="M69.531,176.917c-1.264,0-2.349-0.954-2.483-2.238l-1.918-18.255c-0.145-1.374,0.852-2.604,2.225-2.748
				c1.377-0.146,2.604,0.852,2.748,2.225l1.918,18.255c0.145,1.374-0.852,2.604-2.225,2.748
				C69.706,176.913,69.618,176.917,69.531,176.917z"/>
		</g>
		<g>
			<path d="M55.764,176.597c-0.087,0-0.175-0.004-0.264-0.014c-1.373-0.145-2.37-1.374-2.225-2.748L55.16,155.9
				c0.144-1.373,1.376-2.369,2.748-2.225c1.373,0.145,2.37,1.374,2.225,2.748l-1.885,17.935
				C58.113,175.643,57.028,176.597,55.764,176.597z"/>
		</g>
		<g>
			<path fill="#F9D0B4" d="M213.205,87.83c-0.438,0-0.867,0.037-1.287,0.102c0,2.133,0,12.006,0,15.178v0v0
				c0,0.452-0.021,0.9-0.051,1.345c0.436,0.07,0.881,0.117,1.337,0.117c4.623,0,8.371-3.748,8.371-8.371
				C221.576,91.578,217.828,87.83,213.205,87.83z"/>
		</g>
		<g>
			<path fill="#F9D0B4" d="M171.82,91.17c-1.377-0.392-2.791-0.9-4.24-1.54c-0.935-0.413-2.027-0.223-2.773,0.476
				c-1.626,1.525-2.644,3.689-2.644,6.094c0,4.623,3.748,8.371,8.371,8.371c0.456,0,0.901-0.046,1.337-0.117
				c-0.03-0.445-0.051-0.892-0.051-1.345V91.17z"/>
		</g>
		<g>
			<g>
				<path fill="#A57453" d="M164.807,90.107c0.745-0.699,1.838-0.889,2.773-0.476c1.45,0.64,2.864,1.148,4.24,1.54
					c15.758,4.489,26.585-6.324,29.639-9.888c0.491-0.573,1.352-0.615,1.91-0.107c2.824,2.566,5.287,3.741,7.316,4.211
					c0.718,0.166,1.233,0.791,1.233,1.527v1.02c0.42-0.065,0.849-0.102,1.287-0.102c2.316,0,4.412,0.941,5.927,2.461v-4.903
					c0-14.995-12.268-27.263-27.263-27.263c-14.995,0-27.263,12.269-27.263,27.263v4.927
					C164.674,90.247,164.737,90.173,164.807,90.107z"/>
			</g>
		</g>
		<g>
			<path fill="#A57453" d="M220.284,100.655c-1.482,2.351-4.094,3.917-7.079,3.917c-0.456,0-0.901-0.046-1.337-0.117
				c-0.471,7.015-4.587,13.073-10.462,16.275v6.08c0,1.946,1.021,3.728,2.658,4.736l0,0c0.656,0.404-0.176-0.07,5.408,2.708
				c0.751,0.37,1.743,0.763,2.509,1.002l0,0c0.152,0.048,0.305,0.089,0.458,0.132c2.951-1.08,5.554-2.794,7.24-5.464
				c3.092-4.895,1.287-9.638,0.15-11.761c-0.4-0.746-0.331-1.64,0.124-2.354C223.782,109.805,221.973,103.957,220.284,100.655z"/>
		</g>
		<g>
			<path fill="#A57453" d="M163.911,118.164c-1.138,2.123-2.942,6.866,0.15,11.761c1.686,2.67,4.289,4.384,7.24,5.464
				c0.153-0.043,0.307-0.085,0.458-0.132l0,0c0.765-0.24,1.757-0.632,2.509-1.002c5.947-2.958,4.802-2.334,5.408-2.708l0,0
				c1.636-1.008,2.658-2.789,2.658-4.736v-6.08c-5.876-3.202-9.991-9.261-10.462-16.275c-0.436,0.07-0.881,0.117-1.337,0.117
				c-2.984,0-5.596-1.566-7.079-3.917c-1.689,3.303-3.498,9.15,0.332,15.156C164.242,116.524,164.311,117.418,163.911,118.164z"/>
		</g>
		<g>
			<path fill="#F9D0B4" d="M201.459,81.282c-3.053,3.564-13.881,14.377-29.639,9.888v11.94c0,11.027,9.022,20.049,20.049,20.049l0,0
				c11.027,0,20.049-9.022,20.049-20.049V86.913c0-0.737-0.516-1.361-1.233-1.527c-2.029-0.47-4.492-1.645-7.316-4.211
				C202.811,80.667,201.95,80.709,201.459,81.282z"/>
		</g>
		<g>
			<path fill="#70D6F9" d="M234.532,175.659l-1.055-28.996c-0.2-3.592-2.713-6.637-6.201-7.515l-3.985-1.006
				c-0.374-0.094-9.861-2.489-10.35-2.612c-0.31-0.078-0.61-0.188-0.915-0.283c-5.241,5.048-12.349,8.169-20.156,8.169
				s-14.915-3.121-20.156-8.169c-0.305,0.095-0.605,0.205-0.915,0.283c-0.071,0.018-10.285,2.596-10.35,2.612l-3.985,1.006
				c-3.489,0.878-6.001,3.923-6.201,7.515l-1.055,28.996H234.532z"/>
		</g>
		<g>
			<path fill="#F9D0B4" d="M191.869,143.416c7.807,0,14.915-3.121,20.156-8.169c-0.874-0.271-1.732-0.588-2.554-0.993l-4.957-2.444
				c-1.904-0.939-3.109-2.877-3.109-4.999v-6.08c-2.84,1.548-6.09,2.429-9.536,2.429s-6.696-0.881-9.536-2.429v6.08
				c0,2.122-1.205,4.061-3.109,4.999l-4.957,2.444c-0.821,0.405-1.68,0.721-2.554,0.993
				C176.954,140.295,184.063,143.416,191.869,143.416z"/>
		</g>
		<g>
			<path fill="#9BE5F9" d="M194.827,146.103c2.38,7.14,11.437,9.369,16.802,4.09c3.145-3.095,5.919-7.384,7.056-13.215
				c-2.642-0.667-5.482-1.384-5.744-1.45c-0.31-0.078-0.61-0.188-0.915-0.282c-4.781,4.606-11.119,7.598-18.121,8.089
				L194.827,146.103z"/>
		</g>
		<g>
			<path fill="#9BE5F9" d="M172.11,150.194c5.365,5.279,14.422,3.05,16.802-4.09l0.922-2.767c-7.002-0.491-13.34-3.484-18.121-8.089
				c-0.305,0.095-0.605,0.204-0.915,0.282c-0.038,0.01-2.999,0.757-5.744,1.45C166.191,142.81,168.965,147.098,172.11,150.194z"/>
		</g>
		<g>
			<path d="M213.205,107.071c-1.381,0-2.5-1.119-2.5-2.5s1.119-2.5,2.5-2.5c3.237,0,5.871-2.634,5.871-5.87
				c0-3.237-2.634-5.871-5.871-5.871c-1.381,0-2.5-1.119-2.5-2.5s1.119-2.5,2.5-2.5c5.994,0,10.871,4.877,10.871,10.871
				S219.199,107.071,213.205,107.071z"/>
		</g>
		<g>
			<path d="M170.533,107.071c-5.994,0-10.87-4.876-10.87-10.87c0-2.986,1.252-5.872,3.435-7.919c1.482-1.39,3.64-1.757,5.492-0.938
				c1.301,0.574,2.618,1.053,3.916,1.423c1.328,0.379,2.098,1.762,1.719,3.09c-0.379,1.327-1.759,2.097-3.09,1.719
				c-1.518-0.433-3.054-0.99-4.564-1.657c-1.249,1.134-1.907,2.65-1.907,4.283c0,3.236,2.634,5.87,5.87,5.87
				c1.381,0,2.5,1.119,2.5,2.5S171.914,107.071,170.533,107.071z"/>
		</g>
		<g>
			<g>
				<path d="M164.606,92.721c-1.381,0-2.5-1.119-2.5-2.5v-4.832c0-16.412,13.352-29.764,29.763-29.764
					c16.412,0,29.764,13.352,29.764,29.764v4.169c0,1.381-1.119,2.5-2.5,2.5s-2.5-1.119-2.5-2.5v-4.169
					c0-13.654-11.109-24.764-24.764-24.764s-24.763,11.109-24.763,24.764v4.832C167.106,91.602,165.987,92.721,164.606,92.721z"/>
			</g>
		</g>
		<g>
			<path d="M219.305,176.38c-1.381,0-2.5-1.119-2.5-2.5v-13.785c0-1.381,1.119-2.5,2.5-2.5s2.5,1.119,2.5,2.5v13.785
				C221.805,175.261,220.686,176.38,219.305,176.38z"/>
		</g>
		<g>
			<path d="M164.434,176.38c-1.381,0-2.5-1.119-2.5-2.5v-13.785c0-1.381,1.119-2.5,2.5-2.5s2.5,1.119,2.5,2.5v13.785
				C166.934,175.261,165.814,176.38,164.434,176.38z"/>
		</g>
		<g>
			<path d="M212.815,137.748c-1.002,0-1.947-0.606-2.331-1.596c-0.5-1.287,0.138-2.735,1.425-3.235
				c2.57-0.999,4.473-2.455,5.656-4.327c2.359-3.737,1.05-7.396,0.06-9.245c-0.815-1.519-0.731-3.389,0.22-4.879
				c2.961-4.644,1.865-9.222,0.425-12.244c-0.594-1.246-0.065-2.738,1.182-3.332c1.246-0.593,2.738-0.064,3.332,1.182
				c2.795,5.865,2.55,11.911-0.689,17.029c1.229,2.345,3.484,8.163-0.301,14.159c-1.768,2.797-4.483,4.923-8.073,6.317
				C213.423,137.693,213.116,137.748,212.815,137.748z"/>
		</g>
		<g>
			<path d="M171.072,137.805c-0.295,0-0.595-0.053-0.887-0.164c-3.673-1.394-6.444-3.54-8.238-6.381
				c-3.787-5.996-1.531-11.814-0.303-14.158c-3.262-5.157-3.488-11.24-0.638-17.138c0.601-1.244,2.097-1.763,3.339-1.163
				c1.243,0.601,1.764,2.096,1.163,3.339c-1.47,3.042-2.597,7.649,0.386,12.327c0.949,1.487,1.034,3.357,0.221,4.877
				c-0.991,1.85-2.301,5.51,0.059,9.246c1.203,1.903,3.149,3.376,5.785,4.377c1.291,0.489,1.94,1.933,1.45,3.224
				C173.03,137.189,172.08,137.805,171.072,137.805z"/>
		</g>
		<g>
			<path d="M191.869,125.659c-12.434,0-22.549-10.115-22.549-22.549V91.171c0-0.784,0.368-1.522,0.994-1.995s1.44-0.625,2.19-0.409
				c14.354,4.088,24.339-5.939,27.056-9.111l0,0c0.678-0.791,1.624-1.263,2.664-1.327c1.02-0.062,2.061,0.3,2.828,0.998
				c2.144,1.948,4.229,3.168,6.197,3.624c1.865,0.432,3.169,2.062,3.169,3.963v16.197
				C214.419,115.544,204.303,125.659,191.869,125.659z M174.32,94.309v8.802c0,9.677,7.872,17.549,17.549,17.549
				s17.55-7.872,17.55-17.549V87.639c-2.284-0.659-4.581-1.948-6.85-3.845C198.768,87.909,188.661,96.819,174.32,94.309z
				 M201.459,81.282h0.01H201.459z"/>
		</g>
		<g>
			<path d="M234.49,177.058c-1.339,0-2.447-1.061-2.496-2.409l-1.016-27.896c-0.138-2.466-1.872-4.566-4.313-5.181l-3.986-1.007
				c-0.375-0.095-9.861-2.489-10.35-2.612c-0.272-0.068-0.54-0.154-0.808-0.242l-0.245-0.08c-1.317-0.413-2.05-1.816-1.636-3.134
				c0.413-1.318,1.816-2.053,3.134-1.636l0.312,0.101c0.153,0.051,0.307,0.104,0.465,0.143c0.489,0.124,9.979,2.519,10.354,2.613
				l3.982,1.006c4.572,1.15,7.822,5.089,8.085,9.8l1.018,27.943c0.051,1.38-1.027,2.539-2.407,2.589
				C234.552,177.057,234.521,177.058,234.49,177.058z"/>
		</g>
		<g>
			<path d="M149.247,177.118c-0.031,0-0.062-0.001-0.093-0.002c-1.38-0.05-2.458-1.209-2.407-2.589l1.017-27.956
				c0.265-4.759,3.515-8.697,8.09-9.849l3.982-1.005c0.063-0.016,10.293-2.599,10.364-2.616c0.143-0.035,0.295-0.088,0.448-0.138
				l0.318-0.104c1.316-0.411,2.72,0.32,3.133,1.639c0.413,1.317-0.321,2.721-1.639,3.133l-0.25,0.081
				c-0.266,0.087-0.53,0.172-0.801,0.24c-0.19,0.048-10.238,2.584-10.348,2.612l-3.986,1.006c-2.443,0.615-4.179,2.717-4.318,5.229
				l-1.015,27.908C151.694,176.058,150.585,177.118,149.247,177.118z"/>
		</g>
		<g>
			<path d="M191.869,145.916c-8.179,0-15.953-3.149-21.89-8.868c-0.637-0.613-0.902-1.517-0.698-2.377s0.847-1.549,1.69-1.812
				c0.858-0.267,1.574-0.544,2.189-0.848l4.957-2.444c1.058-0.521,1.715-1.578,1.715-2.757v-5.583c0-1.381,1.119-2.5,2.5-2.5
				s2.5,1.119,2.5,2.5v5.583c0,3.098-1.726,5.872-4.504,7.241l-3.866,1.907c4.488,3.218,9.837,4.957,15.406,4.957
				s10.919-1.739,15.407-4.957l-3.867-1.907c-2.778-1.37-4.504-4.145-4.504-7.241v-5.395c0-1.381,1.119-2.5,2.5-2.5
				s2.5,1.119,2.5,2.5v5.395c0,1.161,0.673,2.243,1.715,2.757l4.957,2.444c0.618,0.305,1.334,0.582,2.189,0.848
				c0.845,0.263,1.487,0.951,1.691,1.811c0.204,0.86-0.062,1.765-0.698,2.378C207.823,142.767,200.049,145.916,191.869,145.916z"/>
		</g>
		<g>
			<path d="M204.559,155.603c-0.994,0-1.999-0.117-2.996-0.356c-4.304-1.035-7.709-4.157-9.107-8.352l-0.641-1.922
				c-0.437-1.311,0.271-2.727,1.581-3.163c1.312-0.434,2.726,0.271,3.163,1.581l0.641,1.922c0.849,2.547,2.917,4.443,5.532,5.071
				c2.584,0.622,5.256-0.114,7.144-1.973c3.144-3.093,5.233-6.867,6.21-11.218c0.303-1.348,1.633-2.196,2.987-1.892
				c1.347,0.303,2.194,1.64,1.892,2.987c-1.191,5.303-3.742,9.907-7.581,13.687C210.985,154.334,207.828,155.603,204.559,155.603z"
				/>
		</g>
		<g>
			<path d="M179.181,155.603c-3.271,0-6.428-1.269-8.824-3.627c-3.836-3.775-6.386-8.375-7.578-13.671
				c-0.303-1.347,0.544-2.685,1.891-2.988c1.349-0.3,2.686,0.545,2.988,1.891c0.978,4.344,3.065,8.113,6.207,11.204
				c1.886,1.858,4.557,2.594,7.142,1.974c2.616-0.629,4.686-2.524,5.534-5.072l0.711-2.134c0.436-1.31,1.849-2.018,3.162-1.582
				c1.31,0.437,2.019,1.852,1.582,3.162l-0.711,2.135c-1.399,4.196-4.805,7.318-9.11,8.353
				C181.178,155.485,180.174,155.603,179.181,155.603z"/>
		</g>
		<g>
			<path fill="#F5C84C" d="M122.761,181.481c0-3.216-2.607-5.823-5.823-5.823H8.323c-3.216,0-5.823,2.607-5.823,5.823
				s2.607,5.823,5.823,5.823h108.616C120.154,187.304,122.761,184.697,122.761,181.481z"/>
		</g>
		<g>
			<rect x="9.131" y="187.304" fill="#A57453" width="107" height="39.196"/>
		</g>
		<g>
			<path fill="#C18E6B" d="M122.761,181.481c0-3.216-2.607-5.823-5.823-5.823H8.323c-3.216,0-5.823,2.607-5.823,5.823
				s2.607,5.823,5.823,5.823h108.616C120.154,187.304,122.761,184.697,122.761,181.481z"/>
		</g>
		<g>
			<path d="M116.938,189.804H8.323c-4.589,0-8.323-3.733-8.323-8.322c0-4.59,3.733-8.323,8.323-8.323h108.616
				c4.589,0,8.323,3.733,8.323,8.323C125.261,186.07,121.528,189.804,116.938,189.804z M8.323,178.158
				c-1.832,0-3.323,1.491-3.323,3.323s1.491,3.322,3.323,3.322h108.616c1.832,0,3.323-1.49,3.323-3.322s-1.491-3.323-3.323-3.323
				H8.323z"/>
		</g>
		<g>
			<path d="M9.13,229c-1.381,0-2.5-1.119-2.5-2.5v-38.086c0-1.381,1.119-2.5,2.5-2.5s2.5,1.119,2.5,2.5V226.5
				C11.63,227.881,10.511,229,9.13,229z"/>
		</g>
		<g>
			<path d="M116.13,229c-1.381,0-2.5-1.119-2.5-2.5v-37.92c0-1.381,1.119-2.5,2.5-2.5s2.5,1.119,2.5,2.5v37.92
				C118.63,227.881,117.511,229,116.13,229z"/>
		</g>
		<g>
			<path d="M116.938,189.804H8.323c-4.589,0-8.323-3.733-8.323-8.322c0-4.59,3.733-8.323,8.323-8.323h108.616
				c4.589,0,8.323,3.733,8.323,8.323C125.261,186.07,121.528,189.804,116.938,189.804z M8.323,178.158
				c-1.832,0-3.323,1.491-3.323,3.323s1.491,3.322,3.323,3.322h108.616c1.832,0,3.323-1.49,3.323-3.322s-1.491-3.323-3.323-3.323
				H8.323z"/>
		</g>
		<g>
			<path fill="#F5C84C" d="M253.5,181.481c0-3.216-2.607-5.823-5.823-5.823H139.062c-3.216,0-5.823,2.607-5.823,5.823
				s2.607,5.823,5.823,5.823h108.616C250.893,187.304,253.5,184.697,253.5,181.481z"/>
		</g>
		<g>
			<rect x="139.869" y="187.304" fill="#A57453" width="107" height="39.196"/>
		</g>
		<g>
			<path fill="#C18E6B" d="M253.5,181.481c0-3.216-2.607-5.823-5.823-5.823H139.062c-3.216,0-5.823,2.607-5.823,5.823
				s2.607,5.823,5.823,5.823h108.616C250.893,187.304,253.5,184.697,253.5,181.481z"/>
		</g>
		<g>
			<path d="M247.678,189.804H139.062c-4.589,0-8.322-3.733-8.322-8.322c0-4.59,3.733-8.323,8.322-8.323h108.616
				c4.589,0,8.322,3.733,8.322,8.323C256,186.07,252.267,189.804,247.678,189.804z M139.062,178.158
				c-1.832,0-3.322,1.491-3.322,3.323s1.49,3.322,3.322,3.322h108.616c1.832,0,3.322-1.49,3.322-3.322s-1.49-3.323-3.322-3.323
				H139.062z"/>
		</g>
		<g>
			<path d="M139.869,229c-1.381,0-2.5-1.119-2.5-2.5v-37.92c0-1.381,1.119-2.5,2.5-2.5s2.5,1.119,2.5,2.5v37.92
				C142.369,227.881,141.25,229,139.869,229z"/>
		</g>
		<g>
			<path d="M246.869,229c-1.381,0-2.5-1.119-2.5-2.5v-38.246c0-1.381,1.119-2.5,2.5-2.5s2.5,1.119,2.5,2.5V226.5
				C249.369,227.881,248.25,229,246.869,229z"/>
		</g>
		<g>
			<path d="M247.678,189.804H139.062c-4.589,0-8.322-3.733-8.322-8.322c0-4.59,3.733-8.323,8.322-8.323h108.616
				c4.589,0,8.322,3.733,8.322,8.323C256,186.07,252.267,189.804,247.678,189.804z M139.062,178.158
				c-1.832,0-3.322,1.491-3.322,3.323s1.49,3.322,3.322,3.322h108.616c1.832,0,3.322-1.49,3.322-3.322s-1.49-3.323-3.322-3.323
				H139.062z"/>
		</g>
		<g>
			<path d="M151.168,28.87h-46.336c-1.381,0-2.5-1.119-2.5-2.5s1.119-2.5,2.5-2.5h46.336c1.381,0,2.5,1.119,2.5,2.5
				S152.549,28.87,151.168,28.87z"/>
		</g>
		<g>
			<path d="M151.168,49.922h-46.336c-1.381,0-2.5-1.119-2.5-2.5s1.119-2.5,2.5-2.5h46.336c1.381,0,2.5,1.119,2.5,2.5
				S152.549,49.922,151.168,49.922z"/>
		</g>
		<g>
			<path d="M151.168,39.396h-46.336c-1.381,0-2.5-1.119-2.5-2.5s1.119-2.5,2.5-2.5h46.336c1.381,0,2.5,1.119,2.5,2.5
				S152.549,39.396,151.168,39.396z"/>
		</g>
	</g>
</g>
<g id="Layer_94">
</g>
<g id="Layer_95">
</g>
</svg>
