<?xml version="1.0" encoding="utf-8"?><svg id="Calque_1" data-name="Calque 1" xmlns="http://www.w3.org/2000/svg" viewBox="0 0 430.19 57.12"><defs><style>.cls-1{fill:#014593;}.cls-2{fill:#1d1d1b;}</style></defs><polygon class="cls-1" points="51.45 0 41.62 11.16 41.65 57.12 42.94 57.12 52.97 45.57 52.95 29.44 77.06 57.12 77.78 57.12 85.92 48.52 64.57 25.47 86.75 0.01 71.46 0.01 52.96 21.19 53.04 0 51.45 0"/><polygon class="cls-1" points="99.42 0 88.61 12.29 88.62 57.12 90.03 57.12 99.96 45.79 99.96 30.98 106.12 30.98 116.11 19.48 99.95 19.48 99.95 11.36 121.73 11.36 131.56 0 99.42 0"/><path class="cls-1" d="M82.56,78.79l9.9-11.49h13.07c2,0,9.32,2.36,12.52,8.26s3.68,13,.88,18.87a16.65,16.65,0,0,1-8.92,8.12,18.65,18.65,0,0,1-4.66,1.11c-1.1,0-11.53.09-11.53.09v9.93l-10.1,10.74h-1.2ZM104.08,92.4a5.31,5.31,0,0,0,4.69-3.71c1.21-4.39,0-6.45-.75-7.72a5.15,5.15,0,0,0-4.49-2.24c-2,0-9.51,0-9.51,0V92.4s9.55,0,10.06,0" transform="translate(-82.52 -67.29)"/><path class="cls-1" d="M82.56,78.79l9.9-11.49h13.07c2,0,9.32,2.36,12.52,8.26s3.68,13,.88,18.87a16.65,16.65,0,0,1-8.92,8.12,18.65,18.65,0,0,1-4.66,1.11c-1.1,0-11.53.09-11.53.09v9.93l-10.1,10.74h-1.2ZM104.08,92.4a5.31,5.31,0,0,0,4.69-3.71c1.21-4.39,0-6.45-.75-7.72a5.15,5.15,0,0,0-4.49-2.24c-2,0-9.51,0-9.51,0V92.4s9.55,0,10.06,0" transform="translate(-82.52 -67.29)"/><polygon class="cls-1" points="162.26 31.55 161.81 30.55 151.43 30.48 134.5 49.87 134.5 51.07 145.14 51.08 162.26 31.55"/><path class="cls-2" d="M269.54,118.37v-2h3.65V75.91h-3.65v-2h21.58a17.33,17.33,0,0,1,9.93,2.74,10.27,10.27,0,0,1,4.89,8.89,12,12,0,0,1-.59,3.71q-2.07,6-9.63,8l11.63,19.19h1.56a5.35,5.35,0,0,1,.89.08c.64.14,1,.76,1,1.85l-12.45.07L287.05,98.06h-4.74v18.31H286v2Zm12.77-42.46V95.84h5.55a7.81,7.81,0,0,0,4.6-1.41q3.78-2.75,3.78-8.67a12.41,12.41,0,0,0-.74-4.3,7.92,7.92,0,0,0-8.08-5.55Z" transform="translate(-82.52 -67.29)"/><path class="cls-2" d="M344.92,114.37q-4.89,4.74-14,4.74a24.2,24.2,0,0,1-13.56-3.78,10.26,10.26,0,0,1-.15,2.07c-.25.75-1,1.12-2.23,1.12V103h2.67a24.72,24.72,0,0,0,1,5.34q2.81,8.67,11.63,8.67a10.84,10.84,0,0,0,4.3-.82,7.06,7.06,0,0,0,4.81-7.11,7,7,0,0,0-.81-3.26c-1-2.08-3.73-4.17-8.08-6.3q-7-3.48-8.15-4.08-7-4.22-7-10.44a9.94,9.94,0,0,1,3-7.19q4.51-4.59,13.12-4.6A28.14,28.14,0,0,1,344,76.05a8.21,8.21,0,0,1,.08-1.18c.19-.94,1-1.41,2.37-1.41V86.73h-2.67a12,12,0,0,0-2.07-7q-3.12-4.37-9.19-4.37a9.92,9.92,0,0,0-3.63.67,6,6,0,0,0-4.3,6.08,7.4,7.4,0,0,0,.81,3.33q1.56,3,7.93,6.23c4.65,2.27,7.31,3.6,8,4,4.64,2.86,7,6.4,7,10.59a11,11,0,0,1-3.41,8.16" transform="translate(-82.52 -67.29)"/><path class="cls-2" d="M355.8,118.37v-2h3.65V75.91H355.8v-2h16.41v2h-3.65v40.46h1.65a2.24,2.24,0,0,1,2,2Z" transform="translate(-82.52 -67.29)"/><path class="cls-2" d="M380.62,118.37v-2h3.65V75.91h-3.65v-2h16.79v2h-4v40.46h8.44a8.45,8.45,0,0,0,3.64-.74q3-1.41,4.52-6.6l1.85-6.37h1.92l-.29,15.71Z" transform="translate(-82.52 -67.29)"/><path class="cls-2" d="M454.52,77.68q8.6,6.38,8.6,18.53a21.94,21.94,0,0,1-7,16.75,22.72,22.72,0,0,1-16.08,6.15,23.24,23.24,0,0,1-14.67-4.89Q417,107.7,417,95.91q0-10.22,7-16.67a24.68,24.68,0,0,1,30.46-1.56m-10.89,38.91q9.18-2.45,9.19-20.68a48.93,48.93,0,0,0-.67-8.52Q450,75.32,440.07,75.31c-.44,0-.91,0-1.41.08q-11.34,1-11.34,20.82a44.1,44.1,0,0,0,1.19,11q2.6,9.7,11.78,9.71a14.24,14.24,0,0,0,3.34-.37" transform="translate(-82.52 -67.29)"/><path class="cls-2" d="M502.22,73.91h10.49v2h-3.65v42.41h-4.23L476.38,84.43v31.94h2a2.24,2.24,0,0,1,2,2H469.69v-2h3.65V75.91h-3.65v-2h9.51L506,106V75.91h-3.8Z" transform="translate(-82.52 -67.29)"/><path class="cls-2" d="M266.33,116.44a3.56,3.56,0,0,0-.82-.07H264L243.5,73.27,236.81,81l17.83,35.41H251.8v2h15.56c0-1.14-.34-1.78-1-1.93" transform="translate(-82.52 -67.29)"/></svg>