<svg xmlns="http://www.w3.org/2000/svg" xmlns:xlink="http://www.w3.org/1999/xlink" version="1.1" viewBox="0 0 4126 1024"><g id="icomoon-ignore"></g><path fill="#a2c617" d="M1176.609 434.516c43.452 0 78.21 34.759 78.21 78.21s-34.759 78.21-78.21 78.21c-5.804 0-18.826-1.453-18.826-2.894-4.348-1.453-21.717-4.348-34.759 0-17.366 7.24-28.972 24.623-28.972 43.452s14.481 37.652 28.972 43.452c14.481 5.804 37.652 8.692 53.584 8.692 95.594 0 172.351-78.21 172.351-172.351 0-95.594-78.21-172.351-172.351-172.351-47.797 0-94.14 20.277-126.010 55.035 0 0-305.598 314.293-378.022 376.57-63.729 55.035-141.939 89.794-233.17 89.794-92.69 0-179.594-36.212-246.216-101.383-65.17-65.17-101.383-153.527-101.383-246.216 0-191.177 156.419-347.596 347.596-347.596 37.652 0 62.277 7.24 72.423 7.24 24.623 1.453 43.452-18.826 43.452-40.559 0-20.277-14.481-37.652-33.321-40.559 0 0-37.652-7.24-81.103-7.24-237.519 0-430.153 192.634-430.153 430.153 0 114.423 44.905 223.043 126.010 304.166s189.737 126.010 304.166 126.010c111.529 0 215.803-41.998 296.905-118.768l383.809-364.982c15.931-17.366 30.413-26.066 55.035-26.066zM1176.609 760.396c-39.105 0-56.491-8.692-69.517-8.692-26.066 0-47.797 21.717-47.797 47.797 0 20.277 14.481 39.105 31.866 44.905 18.826 5.804 52.145 10.133 84.012 10.133 188.285 0 343.267-153.527 343.267-343.267 0-188.285-153.527-343.267-343.267-343.267-92.69 0-182.503 37.652-246.216 104.275l-343.267 385.262c-39.105 39.105-89.794 59.384-144.834 59.384-112.966 0-205.67-92.69-205.67-205.67s92.69-205.67 205.67-205.67c26.066 0 34.759 4.348 46.343 4.348 20.277 0 40.559-17.366 40.559-40.559 0-20.277-13.039-37.652-31.866-40.559-14.481-2.894-36.212-5.804-53.584-5.804-159.311 0-288.227 128.9-288.227 288.227s128.9 288.227 288.227 288.227c130.353 0 202.765-84.012 214.35-95.594l337.465-356.29c47.797-53.584 114.423-84.012 185.391-84.012 136.141 0 247.669 111.529 247.669 247.669-2.894 137.594-114.423 249.126-250.562 249.126zM1538.698 150.632c-97.036-97.036-225.958-150.633-362.087-150.633-162.219 0-317.183 78.21-414.242 210.022 0 0-259.253 324.423-272.294 340.358s-31.866 24.623-50.689 24.623c-34.759 0-63.729-28.972-63.729-63.729s28.972-63.729 63.729-63.729c7.24 0 11.584 0 17.366 0 21.717 0 40.559-18.826 40.559-40.559 0-17.366-11.584-43.452-52.145-43.452-86.906 0-150.633 66.625-150.633 146.286 0 81.103 65.17 146.286 146.286 146.286 40.559 0 79.665-17.366 107.181-47.797l299.814-351.943c79.665-102.836 199.871-162.219 328.772-162.219 111.529 0 215.803 43.452 295.467 121.661 78.21 78.21 121.661 183.936 121.661 295.467 0 230.283-186.832 417.127-417.127 417.127-65.17 0-86.906-11.584-102.836-11.584-27.52 0-49.258 21.717-49.258 47.797 0 20.277 11.584 36.212 30.413 44.905 15.931 7.24 79.665 14.481 120.205 14.481 282.427 0 512.709-230.283 512.709-512.709 1.453-136.141-52.145-263.598-149.181-360.635z"/><path fill="#1a1d56" d="M2262.866 504.029l-270.84-99.924c-13.039-5.804-23.173-18.826-23.173-33.321 0-20.277 15.931-36.212 36.212-36.212h294.012v-107.181h-298.361c-78.21 0-143.398 63.729-143.398 143.398 0 60.82 37.652 112.966 91.25 133.247l270.84 99.924c14.481 4.348 23.173 18.826 23.173 33.321 0 20.277-15.931 36.212-36.212 36.212h-350.503v107.181h353.398c78.21 0 146.286-63.729 146.286-143.398 2.894-60.82-39.105-112.966-92.69-133.247zM3766.246 673.488c-20.277 0-36.212-15.931-36.212-36.212 0-15.931 10.133-28.972 23.173-33.321l270.84-99.924c53.584-20.277 91.25-72.423 91.25-133.247 0-78.21-63.729-143.398-143.398-143.398h-298.361v107.181h294.012c20.277 0 36.212 15.931 36.212 36.212 0 15.931-10.133 28.972-23.173 33.321l-270.84 99.924c-53.584 20.277-94.14 72.423-94.14 133.247 0 78.21 66.625 143.398 146.286 143.398h353.398v-107.181h-349.051zM2803.087 557.614c0 84.012-50.689 127.462-127.462 127.462-78.21 0-128.9-43.452-127.462-127.462v-330.227h-115.879v337.465c0 123.116 89.794 221.605 243.321 221.605 154.96 0 243.321-98.488 243.321-221.605v-337.465h-115.879v330.227zM3291.191 220.146c-159.311 0-285.319 127.462-285.319 283.88s126.010 283.88 285.319 283.88c98.488 0 178.152-40.559 237.519-110.075l-88.341-63.729c-40.559 46.343-89.794 73.861-147.728 73.861-82.558 0-150.633-60.82-168.004-143.398h444.646c1.453-13.039 2.894-27.52 2.894-39.105-1.453-157.872-121.661-285.319-280.973-285.319zM3126.079 451.886c20.277-76.755 86.906-131.796 165.112-131.796s144.834 56.491 165.112 131.796h-330.227z"/></svg>